<svg id="Agrupar_1" data-name="Agrupar 1" xmlns="http://www.w3.org/2000/svg" width="3542.994" height="3542.994" viewBox="0 0 252 252">
  <defs>
    <style>
      .cls-1, .cls-2 {
        fill: #b7ebde;
      }

      .cls-2 {
        stroke: #06c2b5;
        stroke-width: 3.267px;
      }

      .cls-3 {
        fill: #fff;
        fill-rule: evenodd;
      }
    </style>
  </defs>
  <circle id="Elipse_1_copiar" data-name="Elipse 1 copiar" class="cls-1" cx="125.875" cy="125.875" r="122.844"/>
  <circle id="Elipse_1" data-name="Elipse 1" class="cls-2" cx="125.875" cy="125.891" r="116.437"/>
  <path id="Forma_1" data-name="Forma 1" class="cls-3" d="M138.6,116.558a8.066,8.066,0,0,0-2.09-2.61,8.321,8.321,0,0,0-3.134-1.566c-2.287-.641-4.008-0.449-6.53-0.522a30.079,30.079,0,0,0-5.224,0,20.052,20.052,0,0,0-3.657,1.044,5.058,5.058,0,0,0-2.09,1.305,4.747,4.747,0,0,0-1.044,1.827l-39.7,37.319a53.937,53.937,0,0,0-8.1,10.178A46.244,46.244,0,0,0,61.28,177.1,29.644,29.644,0,0,0,72.512,207.9a34.668,34.668,0,0,0,18.023,7.307,36.9,36.9,0,0,0,18.807-3.132,54.7,54.7,0,0,0,8.358-4.958,75.244,75.244,0,0,0,8.881-7.307l2.35,2.087a45.487,45.487,0,0,0,32.911,13.571l5.224-.522a35.928,35.928,0,0,0,14.366-7.568c6.057-5.266,9.775-11.534,10.97-18.007,0.585-3.166.385-10.673-2.612-18.53a47.191,47.191,0,0,0-11.231-16.963L139.639,117.6Z"/>
  <path id="_1" data-name="1" class="cls-3" d="M43.844,77.649c-13.87,7.595-10.136,32.112-3.734,43.7s22.139,25.183,35.476,18.654,11.2-31.712,4.268-42.371C73.718,82.979,57.714,70.054,43.844,77.649Z"/>
  <path id="_2" data-name="2" class="cls-3" d="M89.189,28.882c-17.338,4-17.338,27.181-14.4,42.638,0.8,9.593,15.2,36.109,30.941,31.978s16.538-26.915,14.938-40.506S106.527,24.885,89.189,28.882Z"/>
  <path id="_3" data-name="3" class="cls-3" d="M163.783,28.882c17.338,4,17.338,27.181,14.4,42.638-0.8,9.593-15.2,36.109-30.942,31.978s-16.537-26.915-14.937-40.506S146.445,24.885,163.783,28.882Z"/>
  <path id="_4" data-name="4" class="cls-3" d="M209.245,77.649c13.87,7.595,10.136,32.112,3.734,43.7S190.84,146.536,177.5,140.007s-11.2-31.712-4.268-42.371C179.37,82.979,195.375,70.054,209.245,77.649ZM133.632,206.333"/>
</svg>
