<svg id="Agrupar_1_copiar_3" data-name="Agrupar 1 copiar 3" xmlns="http://www.w3.org/2000/svg" xmlns:xlink="http://www.w3.org/1999/xlink" width="12500" height="4583" viewBox="0 0 12500 4583">
  <defs>
    <style>
      .cls-1 {
        fill: #66bdb1;
      }

      .cls-1, .cls-10, .cls-11, .cls-12, .cls-13, .cls-14, .cls-15, .cls-16, .cls-17, .cls-18, .cls-2, .cls-3, .cls-4, .cls-5, .cls-6, .cls-7, .cls-8, .cls-9 {
        fill-rule: evenodd;
      }

      .cls-2 {
        fill: #6bcbc0;
      }

      .cls-3 {
        fill: #539a97;
      }

      .cls-4 {
        fill: #57a4a1;
      }

      .cls-5 {
        fill: #227169;
      }

      .cls-6 {
        fill: #309285;
      }

      .cls-7 {
        fill: #388a85;
      }

      .cls-8 {
        fill: #64b4b0;
      }

      .cls-9 {
        fill: #4d8c89;
      }

      .cls-10 {
        fill: #5ba5a2;
      }

      .cls-11 {
        fill: #4d928f;
      }

      .cls-12 {
        fill: #5faba8;
      }

      .cls-13 {
        fill: #6bc5b9;
      }

      .cls-14 {
        fill: #00c5b8;
      }

      .cls-15 {
        fill: #00c4b7;
      }

      .cls-16 {
        fill: #3eb5a5;
      }

      .cls-17 {
        fill: #315351;
      }

      .cls-18 {
        fill: url(#linear-gradient);
      }
    </style>
    <linearGradient id="linear-gradient" x1="6250" y1="6026" x2="6250" y2="-250" gradientUnits="userSpaceOnUse">
      <stop offset="0" stop-color="#0dceb0"/>
      <stop offset="1" stop-color="#31dfe1" stop-opacity="0"/>
    </linearGradient>
  </defs>
  <path id="Retângulo_2857" data-name="Retângulo 2857" class="cls-1" d="M-467-400H13280V4699H-467V-400h0Z"/>
  <path id="Forma_44" data-name="Forma 44" class="cls-2" d="M-480.012,1565c109.526-112.66,264-141.54,301.978-148C738.078,1261.08,2957.37,474.18,4938.6,607c1177.74,78.954,1818.03,487.98,2978.79,363C9550.93,794.119,12003.5-157.781,12339.1-287c165.1-63.582,519.4-192.409,655.9-48,110,116.275,40.5,373.328-64,606-529.9,1180.91-2811.1,1778.18-5035.6,1709-1727-53.71-2719.95-792.7-4474.69-562.68C1791.29,1630.92,31.444,3056.26-464.014,2603-717.995,2370.65-717.117,1808.89-480.012,1565Z"/>
  <g id="Mountains">
    <path id="Forma_43" data-name="Forma 43" class="cls-3" d="M2561.92,2517.01c47.07-57.45,98.09-91.46,153.13-94.55,62.55-3.52,94.67,34.95,164.37,31.89,20.98-.92,61.07-11.16,101.33-32.67,121.57-64.97,166.47-170.1,257.06-232.33,126.59-86.98,303.95-101.46,432.49-66.98,58.19,15.61,141.39,80.09,235.1,75.62,118.92-5.67,171.58-93.46,291.38-168.43,72.55-45.4,268.61-148.16,462.06-101.33,204.05,49.38,259.94,223.06,502.45,299.21,29.38,9.23,95.46,21.9,150.01,31.56,70.39,12.47,144.73,27.47,221.44,47.26,82.61,21.3,142.89,43.02,191.52,95.62,40.39,43.7,44.96,97.56,97.18,135.48,76.22,55.35,218.26,25.25,272.02,34.42,44.87,7.67,163.22,66.73,268.9,160.54,156.95,139.33,254.98,331.06,295.46,539.73L3361.65,3573.33Z"/>
    <path id="Forma_42" data-name="Forma 42" class="cls-3" d="M118.52,2425.26l329.9-532.43c34.874-70.19,73.154-117.91,113.336-116.62,70.977,2.27,101.707,158,172.625,158.23,62.582,0.2,88.25-121.76,165.353-136.47,63.328-12.08,135.872,44.86,209.932,138.04l231.03,468.13,181.83-206.22c77.71-105.85,205.72-170.56,342.76-167.47,149.38,3.37,286.81,87.25,355.08,218.51l330.11,624.67c26.03,41.93,57.07,68.58,93.66,79.28,102.4,29.94,204.82-88.22,326.28-97.72,59.51-4.65,169.98,18.85,291.72,104.86,115.27,81.42,156.41,186.69,221.28,271.54,169.59,221.84,503.77,251.38,979.55,260.85,671.59,13.38,1155.6-25.57,1336.76-186.79,88.18-78.48,244.95-408.63,482.77-465.82,135.37-32.55,234.63,21.37,352.86,15.09,253.98-13.49,419.73-177.45,559.25-288.75,222.35-177.38,608.16-413.43,1019.33-439.51,248.94-15.79,497.33,117.75,801.7,18.35,123.37-40.29,271.38-176.99,475.68-185.47,135.04-5.6,287.45,58.06,489.42,144.45,91.76,39.23,165.76,70.82,233.56,75.47,264,18.07,385.3-196.31,630.9-209.97,229.7-12.78,394.7,168.19,590.4,223.9,285,81.12,454.9-4.49,735.2,30.85,174.5,22,408.8,88.61,657.3,197.37,146.3,64,284.5,134.02,399.6,205.5,104,64.59,241.5,155,436.7,192.33,71.3,13.64,210.4,18.27,345.7,7.91,40.5-3.1,219.7-26.8,339.2-27.3,34.7-.14,68.6.63,103,2.36l-13.1,1100.69L8831.18,4784.58l-9351.9-361.3Z"/>
    <path id="Forma_41" data-name="Forma 41" class="cls-4" d="M230.3,3259.12c111.35-525.67,508.481-852.08,883.956-841.6,200.12,5.58,383.04,106.64,526.09,250.67,51.44,51.8,102.94,147.48,144.56,262.78,38.6,106.96,60.26,240.71,66,239.9,4.97-.7-18.82-91.4,18.71-174.82,40.68-90.46,138.65-151.73,278.02-189.79,124.16-25.26,252.85-12.02,365.77,43.61,176.73,87.08,284.44,261.57,305.4,448.82,6.49-70.68,35.03-135.93,90.59-173.15,14.92-9.99,65.73-29.39,123.08-32.17,57.01-2.76,116.33,23.28,172.53,4.04,60.68-20.78,77.17-72.8,132.86-137.1,80.14-92.52,165.34-132.54,204.75-135.42,68.85-5.02,112.44,41.73,179.2,25.23,79.79-19.73,107.76-118.83,169.5-164.29,99.98-73.61,266.41-92.67,374.86-33.28,50.22,27.5,90.38,104.15,155.56,108.8,66.46,4.73,114.42-62.25,181.8-79.88,25.55-6.68,94.04-7.91,165.17,10.88,122.62,32.41,222.28,117.12,289.37,224.1,8.53,59.47,36.75,94.14,55.26,92.43,17.68-1.63,36.92-37.39,38.2-90.24,119.97-76.63,247.13-112.47,369.05-89.51,36.18,6.82,126.3,46.01,206.06,102.97,102.25,73.03,150.81,145.98,247.63,167.04,38.28,8.33,146.6.59,260.18-49.99,61.13-27.22,142.08-103.16,232.98-113.73,80.35-9.34,172.49,30.89,300.03,84.14,51.79,21.63,87.82,35.44,135.9,31.23,111-9.72,157.99-105.34,271.01-196.97,123.18-99.87,248.18-138.47,305.56-140.06,167.47-4.66,256.86,111.98,414.01,128.87,110.79,11.9,237.68-27.83,413.23-130.54,131.1-76.71,437.33-386.86,664.57-405.08,245.36-19.67,342.21,181.01,607.94,140.42,79.39-12.12,171.31-65.4,289.28-63.33,85.51,1.5,197.03,42.15,221.83,47.26,221.6,45.64,430.2-69.49,635-83.28,100.7-6.78,206.7-4.06,258.8,6.05,170.5,33.04,252.8,136.29,420.9,143.06,168.2,6.77,352.4-120.76,427.9-144.22,94-29.17,289.3-47.96,503.9-16.24,366.6,54.14,716.2,264.9,1087.6,523.21,55,38.22,153.5,106.95,285.2,104.82,117.9-1.91,167.5-62.1,267.7-63.84,164.6-2.86,320.5,154.08,464.8,403.47,704.1,327.52,988.9,808.44,881.3,1043.14-85.7,186.9-445.5,272.43-891.1,225.54Q7137.58,4342.715-157.62,4112.34Z"/>
  </g>
  <g id="Plants_background" data-name="Plants background">
    <path id="Forma_37" data-name="Forma 37" class="cls-4" d="M3752.96,3513.77c86.25-126.95,137-240.1,89.95-292.07-41.29-45.61-128.01-10.49-183.13-59.06-71.86-63.32-5.83-195.07-75.63-240.5-44.8-29.15-114.27,8.39-143.09-21.45-41.89-43.36,64.3-163.64,25.94-201.57-36.98-36.57-167.17,50.12-267.15,12.63-90.64-33.98-86.91-125.72-180.17-169.24-75.03-35.02-202.49-4.18-225.64-4.86-209.36-6.12-324.17-195.21-488.35-157.5-122.42,28.12-147.77,169.61-271.61,177.91-91.25,6.12-176.13-86.31-224.15-59.94-38.07,20.9-8.76,88.19-43.99,109.3-68.98,41.34-247.02-176.75-426.81-156.17-179.05,20.49-262.52,264.56-396.658,248.71-98.043-11.58-110.125-147.36-221.194-170.13-122.808-25.17-244.458,123.53-330.67,84.77-55.507-24.96-35.85-99.65-99.105-130.76-53.806-26.46-103.343,11.19-164.1-3.53-95.063-23.02-108.733-127.67-181.157-132.52-107.139-7.16-166.264,214.69-314.111,232.12-87.333,10.3-151.206-66.25-224.65-41.58C-655.7,2559.56-688.2,2641.42-701,2756.5l87.249,571.49L1593.7,3669.46Z"/>
    <path id="Forma_35" data-name="Forma 35" class="cls-5" d="M2384.93,3173.72c20.6-79.83,22.72-144.44-10.19-168.5-29.9-21.85-67.57,5.27-99.94-16.36-43.49-29.07-20.55-113.61-53.17-169.51-44.93-77.01-155.39-118.01-198.5-88.79-29.04,19.68-14.97,67.15-45.06,83.07-37.12,19.64-88.35-36.6-128.59-17.04-27.1,13.17-21.06,47.98-44.71,69.05-46.37,41.32-125.18-4.84-186.94,23.66-47.13,21.74-85.94,76.97-105.12,193.82-19.59,119.44,21.39,231.89,78.37,310.31,97.38,133.98,297.08,243.46,497.31,179.93C2176.91,3545.28,2317.27,3435.93,2384.93,3173.72Z"/>
    <path id="Forma_35_copiar" data-name="Forma 35 copiar" class="cls-4" d="M4959.86,3245.83c-16.62-81.02-15.55-145.92,18.48-168.49,30.93-20.52,67.2,8.46,100.58-11.72,44.84-27.1,26.12-112.96,61.43-167.49,48.65-75.12,160.94-111.04,202.53-79.71,28.01,21.1,11.63,68.04,40.88,85.42,36.08,21.44,90-32.55,129.2-11.05,26.4,14.48,18.65,49.12,41.22,71.36,44.26,43.61,125.19,1.02,185.44,32.5,45.97,24.02,81.99,81.24,95.37,199.32,13.67,120.7-32.79,231.55-93.54,307.51-103.81,129.8-308.55,230.2-505.29,157.08C5149.18,3628.23,5014.46,3511.97,4959.86,3245.83Z"/>
    <path id="Forma_38" data-name="Forma 38" class="cls-6" d="M6281.5,3279.28c138.39-167.53,273.5-266.42,393.03-243.15,71.86,13.99,143.57,106.72,227.16,89.46,45.75-9.44,63.59-52.27,116-53.36,46.55-.96,60.72,34.42,99.6,30.39,77.21-8.01,86.68-155.93,176.75-192.15,87.09-35.01,175.31,58.46,285.16,62.79,86.73,3.41,175.35-60.18,258.57-21.97,73.85,33.91,68.54,101.47,139.82,143.49,81.16,47.86,148.94,21.64,257.2,34.09,202.02,23.23,403.91,178.7,407.88,318.05,2.67,93.41-83.4,174.35-192.46,247.86-314.41,211.91-957.59,481.47-1334.28,627.64Zm152.07,227.91"/>
    <path id="Forma_39" data-name="Forma 39" class="cls-5" d="M9992.16,3366.45c15.54-117.62,47.14-205.01,105.84-221.85,50.6-14.55,106.7,39.97,142.9,17.38,38.7-24.21,6.9-109.92,47.1-167.15,30.3-43.16,91.9-74.11,145-66.7,54.3,7.57,77.2,61.6,127.6,59.08,47.8-2.39,61.2-54.86,101.6-53.69,73.9,2.12,100.8,178.75,181.8,186.54,58.1,5.58,86.3-78.84,159.7-80.37,48-1.01,68.8,38.2,113.9,30.71,61.2-10.17,77.9-94.3,132-123.08,71.8-38.14,177.9-1.7,299.2,77.13l448.3,1006.03Z"/>
  </g>
  <path id="Retângulo_2" data-name="Retângulo 2" class="cls-7" d="M-13.291,3362.74A60631.348,60631.348,0,0,1,15418.2,3830.42q-51.45,1656.78-103.1,3313.57L-140.469,6780.91Q-76.88,5071.825-13.291,3362.74Z"/>
  <g id="Trees">
    <g id="Agrupar_3_copiar" data-name="Agrupar 3 copiar">
      <path id="Forma_4_copiar" data-name="Forma 4 copiar" class="cls-8" d="M8593.26,1657.59c-11.38-75.18-43.15-153.66-103.72-207.66-104.47-93.14-203.55-43.85-304.88-135.46-32.39-29.29-49.49-58.27-100.64-72.41-55.75-15.41-121.68-4.84-192.79,23.98-127.22,45.43-238.88,110.18-328.01,195.31-125.16,119.55-147.41,260.67-208.71,357.4-69.71,109.97-132.45,175.46-101.91,230.88,23.25,42.19,101.23,68.1,255.59,66.1,60.47-.78,106.02-11.19,166.21-10.05,51.37,0.96,83.85,11.95,135.57,10.26,103.62-3.38,168.11-40.8,267.82-79.31,91.07-35.17,189.4-63.37,228.4-66.15,72.9-5.2,129.81,6.12,198.43-25.86,46.18-21.53,82.5-55.49,110.63-97.51a1028.768,1028.768,0,0,1-16.84-120.57C8597.33,1712.77,8596.84,1681.21,8593.26,1657.59Z"/>
      <path id="Forma_4_copiar_2" data-name="Forma 4 copiar 2" class="cls-9" d="M8075.05,2354.29c-14.09-49.94-42.24-100.45-87.78-132.04-78.54-54.5-141.33-13.07-217.62-66.78-24.39-17.18-38.41-35.39-74.19-40.79-39-5.87-82.67,6.66-128.29,31.96-82.15,41.12-152.13,94.04-205.14,158.91-74.45,91.11-77.49,188.41-110.72,258.86-37.77,80.09-74.62,129.52-49.26,164.53,19.3,26.65,74.23,37.82,178.4,23.87,40.82-5.46,70.73-16.22,111.51-20.36,34.81-3.54,57.7,1.24,92.53-4.12,69.75-10.74,110.17-41.32,174.31-75.51,58.57-31.23,122.65-58.34,148.78-63.4,48.84-9.46,88.28-6.45,131.94-33.69,29.39-18.33,51.06-44.28,66.5-75a704.462,704.462,0,0,1-21.63-80.21C8082.49,2391.29,8079.47,2369.98,8075.05,2354.29Z"/>
      <path id="Forma_5" data-name="Forma 5" class="cls-10" d="M8112.07,2081.84c-10.28,15.15-78.19,145.25-131.73,194.3-113.94,104.37-205.36,71.74-321.28,158.67-63.95,47.97-95.05,122.59-189.24,166.97-55.81,26.3-128.63,43.03-223.05,36.32-73.01-5.19-129.02-25.64-141.84-39.69-68.64-75.23,51.01-263.17,52.27-403.93,0.71-80.06-13.61-148.76,32.06-227.8,20.35-35.22,68.85-72.89,124.52-116.54,71.04-55.71,124.65-95.61,203.96-119.88,20.9-6.4,41.01-11.4,58.53-14.21,54.55-8.75,85.65,6.54,137.7-7.15,30.14-7.93,62.85-38.35,101.34-33.99,47.36,5.37,56.66,45.62,104.45,54.4,41.49,7.63,59.11-17.24,100.7-8.02,17.04,3.77,55.79,28.21,88.07,74.78,32.96,47.55,57.52,111.73,48.52,177.75C8150.27,2023.55,8125.1,2062.66,8112.07,2081.84Z"/>
      <path id="Forma_3" data-name="Forma 3" class="cls-11" d="M8179.49,3145.01c7.93-38.74,7.53-75.44-1.78-110.16-15.01-56.03-52.29-84.16-63.81-146.85-5.11-27.83-4.07-55.82,2.06-83.65l-79.35-63.52-132.06-113.22a1034.811,1034.811,0,0,1-262.79-98.66l-144.74,36.24-35.4-22.85,167.31-40.12-114.2-108.4,27.72-30.18,158.48,135.86,164.7,65.53-97.31-63.95-74.43-81.03-102.02-55.25,32.09-25.67,102.14,50.85,73.99,98.64,133.48,55.98-65.01-98.42-189.82-141,19.06-43.6,105.76,86.17L7791.82,2277l-11.75-70.75-51.3-106.92,31.55-3.66,68.2,151.36,11.3,88.36,56.02,98.21,95.8,125.58,60.62,93.92,78.16,111.95,3.9-158.47-37.18-133.01-33.99-80.09,27.18-8.17,71.6,195.49,19.01-224.19-52.61-54.09c0.61,0.99,1,1.42,1.2,1.34,2.08-.77-35.73-98.73-49.74-138.12-0.63-1.79-1.27-3.57-1.9-5.36l31.12,13.95,50.77,128.92,13.26,9.13-27.87-146.01-62.94-182.07,6.01-61.52,17.43,22.43,3.08,57.33,45.84,146.43,32.21-30.08,20.57-105.22,8.98,0.21-11.47,101.03-37.25,51.98,23.38,145.91,28.58-65.4-11.2-92.76,9.09-4.19,15.59,97.27,50.5-42.87,2.61-105.65,13.47,0.32-2.82,114.45-55.21,51.56-33.18,69.7-0.44,17.61,49.85-16.45,41.09-25.46,45.47-20.96,35.94,0.84,77.68-51.03,37.45-60.78,5.47-39.52,13.37,4.72-9.96,39.41-37.57,65.19-82.27,55.32-40.44-.94-40.86,16.66-41.2,29.86-54.34,16.34-18.47,202.18,13.37,4.72,56.19-91.18,35.94,0.85,22.36,4.93-69.67,90.86c-6.35,22.7-15.74,43.05-28.48,61-10.02,14.11-22.84,28.18-28.26,52.19-3.51,15.58-2.21,28.58-.97,39.62,1.5,13.36,3.02,29.37,3.51,39.72,1.83,38.11-10.65,58.77-6.87,96.74,2.78,27.92,13.18,49.99,20.83,66.56,16.74,36.22,30.65,79.51,41.89,124.31l25.72-131.53c20.02-31.67,43.93-68.51,60.68-91.07,6.49-8.74,14.34-19.36,18.84-34.8,11.63-39.93-11.36-76.47-10.77-110.37,0.2-11.41,6.38-37.43,15-61.31,17.95-49.77,48.68-95.2,88.72-134.46l45.14-7.75-74.92,121.57c-12.87,13.93-22.66,29.8-28.14,47.79-15.74,51.64,16.4,92.82,14.6,136.89-2.49,61.3-49.81,98.57-66.58,148.19-17.35,51.33-18.81,108.26-4.23,171.68Zm1632.64-582.74"/>
      <path id="Forma_4" data-name="Forma 4" class="cls-12" d="M7700.22,2026.12c-13.73,68.76-12.03,146.72,20.34,212.39,55.83,113.28,150.71,101.33,204.48,212.3,17.19,35.48,22.13,65.93,59.06,94.1,40.24,30.7,96.61,42.03,162.71,39.14,116.39,0.14,226.12-21.31,323.9-67.45,137.31-64.8,198.24-180.3,277.12-245.14,89.69-73.72,160.21-111.03,152.49-168.6-5.89-43.82-60.86-90.55-185.88-136.81-48.99-18.12-88.87-23.26-137.05-42.95-41.11-16.81-63.94-36.44-106.15-51.05-84.54-29.28-147.93-16.87-240.04-14.47-84.12,2.19-171.97-3.91-204.26-13.63-60.34-18.15-102.77-45.66-167.82-39.25-43.78,4.31-83.41,22.48-118.88,50.18a1015.738,1015.738,0,0,1-23.16,109.83C7713.76,1977,7704.53,2004.52,7700.22,2026.12Z"/>
    </g>
    <g id="Agrupar_3_copiar_2" data-name="Agrupar 3 copiar 2">
      <path id="Forma_4_copiar-2" data-name="Forma 4 copiar" class="cls-8" d="M10819.5,1575.21c23.5-116.44,78.9-236.52,177.3-316.32,169.8-137.63,320.2-53.48,485-188.96,52.6-43.3,81.5-87.259,162.2-105.561,87.9-19.948,189.7,1.371,298.2,51.541,194.5,80.19,363.3,189.38,495.5,328.7,185.7,195.66,209.5,417.42,297.5,572.79,100,176.64,192.7,283.4,140.9,367.61-39.4,64.11-162.8,98.81-402.9,84.38-94.1-5.65-164.2-25.22-257.9-27.87-80.1-2.26-131.5,12.5-211.8,6.07-161-12.87-258.6-75.97-410.8-143.35-139-61.53-289.9-112.73-350.4-119.93-113.1-13.44-202.5.04-306.9-54.88-70.2-36.96-124.1-92.61-164.7-160.2a1607.008,1607.008,0,0,0,35.5-186.84C10808.9,1660.98,10812.1,1611.79,10819.5,1575.21Z"/>
      <path id="Forma_4_copiar_2-2" data-name="Forma 4 copiar 2" class="cls-9" d="M11573.4,2699.99c25.8-76.87,73.5-153.59,146.8-199.54,126.4-79.25,220.9-10.01,343.8-88.21,39.3-25,62.5-52.39,118.6-58.18,61.1-6.31,128.1,16.44,197.2,59.25,124.7,70.16,229.5,157.85,307.1,262.92,108.9,147.57,106.1,299.57,152.4,411.89,52.7,127.71,106.2,207.51,64.1,260.26-32.1,40.16-118.4,53.55-279.5,24.17-63.1-11.52-108.8-30.49-172-39.95-53.9-8.07-89.9-2.28-143.7-13.2-107.7-21.87-168.3-72.54-265.5-130.57-88.7-53-186.4-99.98-226.7-109.8-75.3-18.34-136.9-16.53-202.7-62.22-44.4-30.75-76.1-72.81-97.8-121.86a1084.9,1084.9,0,0,0,39.8-123.53C11559,2757.17,11565.3,2724.14,11573.4,2699.99Z"/>
      <path id="Forma_5-2" data-name="Forma 5" class="cls-10" d="M11535.9,2272.26c14.8,24.37,110.5,232.3,190.1,312.72,169.3,171.16,314.1,126.97,487.9,271.07,95.8,79.5,138.5,198.18,281.7,274.32,84.9,45.11,196.9,76.55,344.4,73,114-2.74,202.8-30.54,223.8-51.51,112.6-112.32-59.2-414.25-50.3-633.91,5-124.94,32.5-231.05-32.5-357.68-28.9-56.43-101.5-118.74-184.9-190.92-106.3-92.1-186.6-158.28-308.2-201.95-32-11.5-63-20.78-90-26.45-84.2-17.65-133.8,3.92-213.8-21.26-46.3-14.57-94.9-64.41-155.1-60.43-74.1,4.9-91.7,66.99-166.8,77.19-65.1,8.86-90.6-31.22-156.1-19.9-26.8,4.65-89,39.92-142.8,110.21-54.9,71.75-98.1,170.06-89.1,273.7C11480.9,2178.53,11517.1,2241.38,11535.9,2272.26Z"/>
      <path id="Forma_3-2" data-name="Forma 3" class="cls-11" d="M11353.5,3925.8c-9.4-61-6-118.22,11.2-171.7,27.7-86.29,87.8-127.44,110.6-224.39,10.1-43.03,10.6-86.77,3.2-130.62l128.4-93.28,214.2-166.92a1613.048,1613.048,0,0,0,416.6-134.64l222.5,67.14,56.8-33.05-257.3-74.85,186.1-160.7-40.8-49.11-257.1,200.3-261.4,90.15,156.4-92.62,122-120.94,163-78.71-47.9-42.4-162.9,71.83-122.7,148.44-212.1,77.56,108.7-148.77,306.3-206.03-26.3-69.41-171.2,126.67,23.7-109.5,23.7-109.5,88-163.01-48.8-8.03-117.8,231.1-24.3,137-94.8,149.09-158.7,188.87-101.6,142.06-130.2,168.9,6.1-247.49,68.1-204.75,59-122.43-41.7-14.74L11424.1,3047l-12.4-351.1,86-80.51c-1,1.5-1.6,2.14-1.9,2.01-3.2-1.37,63.2-151.4,88-211.81,1.1-2.74,2.2-5.47,3.4-8.21l-49.6,19.47-88.9,197.38-21.3,13.26,54.6-225.71,111.9-279.39-4.6-96.41-28.9,33.72-9.2,89.2-82.5,225.05-47.9-49.27-23.9-165.65-14-.33,10.1,158.44,54,83.82-47.6,225.87-39.5-104.11,24.6-143.87-13.9-7.2-31.7,150.58-75.3-70.56,4.1-164.99-21-.5-4.4,178.74,82,84.48,46.3,111.14-0.7,27.5-76.4-29.31-61.9-42.73-69.2-36.02-56-1.32-117-85.3-53.6-97.56-5.5-62.03-21.2,6.38,12.5,62.2,53.5,104.43,123.8,92.34,63,1.48,62.3,28.98,61.8,49.61,83.4,29.48,13.2,316.72-21.2,6.38-80.4-146.34-56-1.32-35.2,6.05L11291.3,3037c8.1,35.87,21.1,68.31,39.6,97.23,14.5,22.76,33.4,45.64,40,83.49,4.2,24.56,1.2,44.74-1.6,61.87-3.3,20.74-6.9,45.6-8.5,61.7-5.7,59.32,12.1,92.46,3.3,151.41-6.5,43.35-24.3,77.01-37.5,102.3-28.9,55.26-53.8,121.78-74.8,190.84l-29.9-207.07c-28.7-50.86-63.1-110.08-87.5-146.5-9.4-14.11-20.8-31.24-26.6-55.66-15.1-63.15,23.5-118.45,25.2-171.37,0.6-17.81-7-58.85-18.6-96.74-24.2-78.94-68.5-152.06-127.8-216.24l-69.7-15.4,107.3,195.12c19,22.68,33,48.16,40.2,76.61,20.5,81.7-32.7,143.58-33.3,212.46-0.8,95.81,70,157.41,92.3,236.04,23,81.34,21,170.25-6.6,268.11ZM8857.07,2897.16"/>
      <path id="Forma_4-2" data-name="Forma 4" class="cls-12" d="M12181.2,2215.53c16.1,108.27,7.4,229.74-48,329.81-95.6,172.61-242.3,147-334.5,316.17-29.5,54.07-39.5,101.22-99.2,142.45-65,44.93-153.6,58.47-256.2,49.12-181.2-8.31-350.3-49.82-499-128.95-208.7-111.14-294.7-295.77-412.5-402.7-133.9-121.58-240.8-184.94-224.4-274.17,12.5-67.93,101.7-136.79,299.8-199.78,77.6-24.68,140.1-29.76,216.6-56.95,65.3-23.2,102.3-52.15,169.1-71.86,133.9-39.47,231.6-15.46,374.8-4.96,130.7,9.58,267.9,6.5,318.9-6.28,95.3-23.9,163.5-63.71,264.2-48.94,67.9,9.94,128.1,41.19,181.2,87a1588.811,1588.811,0,0,0,27.7,173.01C12163.9,2137.91,12176.1,2181.52,12181.2,2215.53Z"/>
    </g>
    <g id="Agrupar_3_copiar_3" data-name="Agrupar 3 copiar 3">
      <path id="Forma_4_copiar-3" data-name="Forma 4 copiar" class="cls-8" d="M1828.55,1529.65c5.65-101.69-14.55-213.04-79.23-299.81-111.56-149.66-255.04-110.91-362.9-257.73-34.48-46.935-48.97-89.465-112.21-121.429-68.93-34.84-158.32-38.241-259.51-19.042-179.348,26.3-343.575,82.048-483.814,170.451-196.95,124.15-264.777,303.59-371.695,414.5-121.563,126.1-221.806,195.64-196.92,276.4,18.945,61.48,114.17,115.94,317.224,153.77,79.553,14.82,142.165,13.09,220.823,30.35,67.132,14.73,106.734,37.66,175.059,49,136.861,22.71,231.727-9.51,373.093-33.94,129.1-22.3,265.84-33.56,317.77-26.99,97.06,12.29,168.63,42.06,267.41,18.05,66.49-16.16,123.44-51.23,171.84-99.01a1377.676,1377.676,0,0,1,10.93-162.7C1818.77,1603.15,1826.77,1561.59,1828.55,1529.65Z"/>
      <path id="Forma_4_copiar_2-3" data-name="Forma 4 copiar 2" class="cls-9" d="M957.191,2308.35c-4.806-69.26-27.91-142.94-79-196.35-88.117-92.13-181.838-54.19-267.212-144.7-27.29-28.94-40.695-56.52-86.162-72.98-49.556-17.93-110.279-12.93-177.061,8.34-119.024,32.45-225.322,83.59-312.633,154.87C-87.493,2157.62-118.127,2284.56-181,2368.34c-71.486,95.25-133.358,150.49-109.682,203.09,18.025,40.05,87.024,69.1,227.511,78.1,55.042,3.52,97.226-2.77,151.868,2.48,46.635,4.47,75.356,16.75,122.509,18.84,94.454,4.17,155.854-25.38,249.356-53.46,85.393-25.65,176.879-44.44,212.545-44.24,66.662,0.37,117.575,14.66,182.32-9.66,43.578-16.36,79.108-44.75,107.775-81.03a939.564,939.564,0,0,1-6.414-110.97C956.815,2358.88,958.7,2330.11,957.191,2308.35Z"/>
      <path id="Forma_5-3" data-name="Forma 5" class="cls-10" d="M1081.06,1960.52c-17.64,17.18-142.359,170.19-226.031,220.54-178.073,107.17-289.08,40.38-464.958,124.12-97.043,46.21-158.275,136.03-294,169.61-80.42,19.9-180.537,22.79-302.586-10.77-94.359-25.94-162.25-67.48-175.22-89.28-69.448-116.74,138.986-332.12,179.178-516.59,22.861-104.92,22.882-198.86,104.438-290.65,36.343-40.91,110.292-77.65,195.293-120.37,108.454-54.52,189.707-92.86,300.406-103.93,29.172-2.92,56.928-4.21,80.686-3.31,73.967,2.8,110.585,31.03,182.621,26.69,41.71-2.52,92.951-33.87,142.257-18.06,60.667,19.46,61.851,74.73,122.141,98.79,52.35,20.88,82.278-7.15,134.308,15.85,21.32,9.42,65.48,51.66,95.08,121.26,30.22,71.07,44.86,161.76,14.98,246.07C1147.14,1894,1103.41,1938.75,1081.06,1960.52Z"/>
      <path id="Forma_3-3" data-name="Forma 3" class="cls-11" d="M876.8,3373.55c21.013-48.77,30.534-97.05,27.832-145.08-4.358-77.48-45.556-124.18-43.5-209.51,0.913-37.86,9.948-74.34,25.61-109.26l-86.7-104.19L657.774,2622.27a1370.27,1370.27,0,0,1-317.749-198.38L140.2,2433.54l-40.182-39.27,230.5-8.84L210.367,2213.21,255,2180.85,425.71,2400.73l198.146,129.19L513.691,2420.47l-75.45-125.88-118.727-99.27,49.144-25.29,120.076,93.51,70.057,148.88L718.576,2520.9l-58.327-146.25L449.825,2139.81l36.941-52.25L601.923,2228.4l3.971-95.96,3.969-95.96-38.034-153.8,42.406,3.46,48.017,216.57-9.362,118.96,46.6,143.62,91.3,189.97,53.808,139.18,71.879,167.45,48.525-207.03L952.643,2470.5l-22.662-114.04,37.889-3.61,40.4,275.4,86.34-289.34-54.21-84.8c0.54,1.46.93,2.13,1.2,2.08,2.95-.47-19.84-138.98-27.42-194.36q-0.525-3.765-1.03-7.53l37.01,26.46,31.3,182.56,14.9,15.45,3.42-198.98-32.71-255.52,24.73-79.19,16.72,34.01-11.65,76.08,20.04,204.24,50.49-31.04,55.81-132.76,11.73,2.64-42.73,129.63-63.1,58.49-9.29,197.66,55.41-78.36,10.71-124.72,13.08-3.12-6.19,131.78,78-43.03,32.35-138.02,17.59,3.95-35.04,149.51-86.56,53.23-62.63,82.8-5.39,23,69.91-8.53,60.88-22.66,65.39-15.6,46.92,10.52,115.89-46.64,65.79-69.99,18-50.44,16.25,9.7-23.86,49.12-67.15,75.74-123.1,51.08-52.78-11.84-58.18,11.16-62.23,28.42-75.77,7.21-79.6,260.59,16.25,9.7,98.69-104.98,46.92,10.52,27.98,12.33-116.29,101.03c-14.54,28.14-32.44,52.4-54.06,72.62-17.01,15.91-37.69,31.02-51.37,61.12-8.88,19.53-10.73,36.94-12.13,51.75-1.69,17.94-4.078,39.36-6.264,53.08-8.048,50.5-30.079,74.36-35.519,125.2-4,37.38,3.6,69.08,9.109,92.84,12.041,51.93,18.433,112.41,20.911,174.17l69.763-165.94c34.94-36.33,76.41-78.43,104.56-103.67,10.9-9.77,24.11-21.64,34.24-40.74,26.2-49.38,6.04-103.36,16.1-147.71,3.39-14.93,18.62-47.47,36.47-76.57,37.19-60.63,89.94-112.21,153.23-153.27l61.34,1.65-131.58,139.97c-20.71,14.91-37.9,33.19-50.02,55.37-34.79,63.66-3.9,126.14-18.32,183.53-20.07,79.83-92.36,116.35-127.95,177.11-36.81,62.84-54.32,137.2-52.56,224.28ZM3178.38,3036.31"/>
      <path id="Forma_4-3" data-name="Forma 4" class="cls-12" d="M556.59,1779.43c-36.866,86.68-55.987,189.46-31.49,284.17,42.257,163.34,170.089,172.51,210.265,332.29,12.844,51.07,11,92.36,51.751,139.01,44.424,50.85,115.311,80.49,202.877,94.02,152.747,30.69,302.687,31.28,443.677-3.67,198.02-49.08,309.65-184.75,430.97-249.2,137.94-73.28,240.74-103.78,246.37-181.38,4.29-59.08-55.07-134.82-206.53-228.31-59.34-36.63-110.29-53.83-168.14-92.3-49.36-32.84-73.96-64.6-125.36-94.85-102.97-60.59-189.59-60.91-311.16-81.89-111.03-19.17-224.69-50.2-264.41-71.42-74.24-39.65-122.4-86.89-209.554-95.52-58.661-5.8-115.66,7.67-169.809,34.74a1371.11,1371.11,0,0,1-60.5,138.11C587.819,1718.49,568.17,1752.21,556.59,1779.43Z"/>
    </g>
  </g>
  <g id="RACOON">
    <path id="Mao_esq" data-name="Mao esq" class="cls-13" d="M1307.3,4107.81c-30.8,29.27-34.93,81.25-35.06,102.59-0.16,24.34,4.32,70.29,31.55,98.51,24.63,25.5,56.29,23.29,75.94,17.13,27.76-8.69,49.93-32.39,63.89-59.71,16.29-31.87,33.37-93.07,11.04-138.32-9.59-19.43-42.49-44.17-100.55-39.01C1332.26,4090.94,1317.38,4098.23,1307.3,4107.81Z"/>
    <path id="Bra_esq" data-name="Bra esq" class="cls-13" d="M1269.51,4079.66l216.37-315.8,141.21-188.99a593.623,593.623,0,0,1,58.44-32.5c59.55-28.87,106.08-36.1,121.71-29.79,19.52,7.88,36.39,31.13,41.08,76.78,3.95,38.34-5.86,77.75-37.19,128.44-21.35,34.53-48.22,66.83-80.21,96.58l-150.74,263.6-88.03,131.26c-33.87,5.82-68.67,4.57-101.23-4.34-58.65-16.06-102.04-54.57-122.48-100.28"/>
    <path id="Mao_esq_copiar" data-name="Mao esq copiar" class="cls-14" d="M2650.91,4120.9c28.19,31.79,27.86,83.94,26.16,105.21-1.92,24.26-10.32,69.67-39.88,95.45-26.72,23.3-58.08,18.38-77.14,10.57-26.92-11.04-46.98-36.55-58.56-64.97-13.51-33.15-25.3-95.59.83-138.76,11.22-18.53,46.13-40.36,103.55-30.25C2627.48,4101.95,2641.69,4110.49,2650.91,4120.9Z"/>
    <path id="Bra_esq_copiar" data-name="Bra esq copiar" class="cls-13" d="M2702.72,4141.06l-188.53-333.17-124.51-200.38a592.676,592.676,0,0,0-55.44-37.39c-56.85-33.86-102.59-45.05-118.7-40.1-20.12,6.18-38.91,27.9-47.49,72.98-7.21,37.86-.81,77.97,26.07,131.15,18.31,36.24,42.32,70.72,71.63,103.1l127.63,275.54,76.46,138.31c33.25,8.7,68.02,10.44,101.22,4.34,59.8-10.97,106.32-45.63,130.59-89.42"/>
    <path id="Pé_esq" data-name="Pé esq" class="cls-15" d="M1847.9,4862.32l-22.07,120.97c-23.98,17.92-50.79,28.79-78.55,31.46-30.36,2.92-64.73-4.32-100.15-27.52a200.893,200.893,0,0,1-48.7-45.62l6.75-101.31Z"/>
    <path id="Perna_esq" data-name="Perna esq" class="cls-16" d="M1532.98,4442.38q3.945,13.26,7.7,26.47c10.92,38.4,20.71,76.65,29.56,115.51,10.05,44.15,19.45,98.41,27.14,153.25a568.291,568.291,0,0,1,6.12,82.15q-0.015,23.43-2,46.71l94.11,50.84,72.34-2.74,73.08-20.26,50.93-290.28Z"/>
    <path id="Pé_dir" data-name="Pé dir" class="cls-15" d="M2059.8,4871.49l11.6,123.33c22.35,20.06,48.12,33.27,75.56,38.34,29.99,5.54,64.86,1.22,102.14-19.02a201.179,201.179,0,0,0,52.44-41.62l1.98-102.28Z"/>
    <path id="Perna_dir" data-name="Perna dir" class="cls-17" d="M2407.1,4479.85q-5.07,12.885-9.95,25.72c-14.19,37.33-27.24,74.59-39.4,112.55-13.82,43.13-27.85,96.38-40.22,150.36-6.04,26.35-10.6,51.65-13.14,81.32q-1.995,23.34-2,46.71l-98.32,42.58-72-8.93-71.24-26.46-26.01-293.57Z"/>
    <path id="Quadril" class="cls-13" d="M1517.53,4260.32c-14.2,64.68-12.14,131.35,7.17,192.89,13.69,43.61,37.01,85.64,66.92,119.58,83.76,95.08,192.27,87.16,381.73,98.08,187.89,10.83,291.84,30.83,367.68-54.26,15.47-17.36,43.62-67.64,61.99-125.73,22.7-71.79,30.97-148.51,25.14-226.52l-817.18-23.38Z"/>
    <path id="Torso" class="cls-13" d="M1551.41,4343.74c38.77,65.07,107.39,79.24,189.06,90,74.48,9.82,147.53,16.81,216.13,20.97,93.39,5.66,157.92,14.6,250.84-.94,100.22-16.77,155.35-47.89,187.43-97.25,62.16-95.63,25.02-193.76,1.57-374.28-25.85-199.08,9.47-326.05-80.77-410.24-47.26-44.09-161.68-65.27-321.68-69.89-147.87-4.27-256.35,8.12-304.25,45.85-103.99,81.91-69.42,222.4-113.19,434.21C1540.96,4154.4,1496.74,4251.99,1551.41,4343.74Z"/>
    <path id="Forma_5-4" data-name="Forma 5" class="cls-13" d="M930.476,2960.96q26.358-126.18,68-231.65c29.775-75.09,69.595-152.82,121.6-236.31a1670.5,1670.5,0,0,1,118.61-166.77q-44.16-52.995-88.32-105.98c-33.63-73.73-54.2-151.42-59.77-230.18-3.63-51.36-1.25-97.08,5.98-139.09a546.429,546.429,0,0,1,27.55-101.01l87.87,8.43c105.76,1.23,209.66,18.05,308.97,50.44a1060.666,1060.666,0,0,1,295.32,152.05l60.65-6.68c45.01-1.12,92.06-2.34,134.82-3.5,49.51-1.34,95.26-2.1,139.26,1.35a989.557,989.557,0,0,1,179.78,30.95l71.32-38.74a901.33,901.33,0,0,1,226.67-87.8c53.22-12.69,116.75-20.94,186.8-24.48a1276.554,1276.554,0,0,1,236.4,10.16l10.12,88.69a806.919,806.919,0,0,1-17.04,180.42c-12.15,57.59-30.66,109.52-47.89,141.94a462.6,462.6,0,0,1-98.28,125.83l55.48,113.87a1485.725,1485.725,0,0,1,84.93,184.81c46.66,123.16,74.86,243.99,86.64,361.38a1361.9,1361.9,0,0,1,5.54,195.33,11.843,11.843,0,0,1-2.91,13.81,11.677,11.677,0,0,1-11.69,1.82l-145.41-20.19-15.5,36.5a590.9,590.9,0,0,1-98.28,125.83c-49.33,48-113.54,92.67-205.29,130.53-204.45,84.34-456.09,89.23-646.66,81.35-138.12-5.71-326.63-23.85-523.41-85.21-133.65-41.68-231.98-92.99-312.56-182.98-50.9-56.84-89.01-122.87-114.67-195.38-16.69,1.3-32.74,2.89-48.97,4.86-31.605,3.85-67.677,1.72-81.512,5.79-1.461.43-8.359,2.56-13.906-.6a9.7,9.7,0,0,1-4.436-4.83,10.225,10.225,0,0,1,.3-6.96C910.851,3126.9,916.037,3030.08,930.476,2960.96Z"/>
    <path id="Forma_16" data-name="Forma 16" class="cls-13" d="M1496.86,2131.02a3638.836,3638.836,0,0,1,1237.54,93.13l3.44-53.23c18.11,3.77,33.24,2.39,44.09-5.69,17.64-13.12,15.56-40.62,27.21-58.1,14.48-21.72,33.72-23.93,61.16-38.8,41.98-22.74,64.02-48.81,73.85-70.04,27.72-59.89,4.14-140.93-42.35-186.63-49.68-48.84-107.59-39.36-196.51-61.93-58.87-14.94-93.8-41.6-150.57-63.23-116.1-44.23-227.84-68.6-301.44-71.94a792.078,792.078,0,0,0-144.41,6.66l-48.06-65.12-28.98-13.64,10.67,99.04c-333.16,96.37-762.71,240.26-754.19,349.83,0.42,5.39,4.03,26.05,15.38,42.69,25.67,37.65,78.03,51.14,134.39,49.35q6.54,30.9,13.08,61.79Q1474.005,2138.08,1496.86,2131.02Z"/>
    <g id="Pincel">
      <path id="Forma_18" data-name="Forma 18" class="cls-13" d="M2323.34,4770.81c13.56,8.2,95.95-103.04,119.03-134.76,64.44-88.53,117.16-176.8,158.87-255.45,35.25-66.46,69.03-131.78,102.56-198.36l-126.07-61.11c-28.97,65.53-58.21,130.33-87.58,193.93-26.12,56.58-51.33,112.48-71.76,164.99-21.66,55.64-34.08,105.33-56.79,160.56-5.56,13.53-17.64,51.99-27.04,79.57C2324.66,4749.27,2318.29,4767.75,2323.34,4770.81Z"/>
      <path id="Forma_18_copiar" data-name="Forma 18 copiar" class="cls-13" d="M2956.08,3535.94c-13.57-8.24-95.82,103.09-118.86,134.83-64.33,88.6-116.95,176.95-158.57,255.68-35.17,66.53-68.87,131.92-102.32,198.56l126.14,61.37c28.9-65.6,58.06-130.48,87.35-194.15,26.06-56.63,51.19-112.6,71.57-165.17,21.59-55.71,33.95-105.47,56.59-160.76,5.54-13.55,17.58-52.06,26.94-79.67C2954.79,3557.5,2961.14,3539.01,2956.08,3535.94Z"/>
      <path id="Forma_17" data-name="Forma 17" class="cls-13" d="M2878.36,3785.98c76.19,2.45,140.15-77.69,155.69-150.56,15.31-71.84-20.39-140.27-50.55-179.9-16.69-21.93-54.49-47.6-92.12-75.5-14.41-10.69-36.17-26.43-55.25-19.17-12.39,4.72-22.22,18.72-23.94,33.22-3.79,31.84,34.47,47.74,36.04,80.86,1.23,25.96-19.55,42.71-42.17,77.19-19.22,29.3-32,60.95-35.31,77.03-10.3,50.06-1.21,84.47,16.08,108.54C2812.08,3772.84,2850.83,3785.1,2878.36,3785.98Z"/>
      <path id="Forma_22" data-name="Forma 22" class="cls-13" d="M2568.16,4342.95c25.67,20.56,87.35-11.38,123.53-45.33,20.78-19.49,71.86-75.14,53.36-127.14-9.64-27.09-37.62-54.99-71.69-55.67-9.37-.18-34.99,6.7-59.31,26.52a149,149,0,0,0-45.84,64.82c-9.4,26.02-9.1,46.7-8.48,66.52C2560.88,4309.42,2559.96,4336.38,2568.16,4342.95Z"/>
    </g>
  </g>
  <g id="WOOF_" data-name="WOOF[">
    <path id="Mao_esq_copiar-2" data-name="Mao esq copiar" class="cls-13" d="M5786.08,3878.31c-45.56.74-87.8-36.13-103.94-52.44-18.42-18.61-49.54-57.34-49.91-99.61-0.34-38.21,25.55-60.41,45.21-70.51,27.77-14.27,62.54-12.78,93.77-2.3,36.41,12.21,95.49,46.4,112.42,98.06,7.27,22.19.7,66.06-47.6,105.93C5817.86,3872.44,5800.99,3878.07,5786.08,3878.31Z"/>
    <path id="Bra_esq_copiar-2" data-name="Bra esq copiar" class="cls-13" d="M5778.33,3928.49l402.93,79.57,250.1,38.77a631.6,631.6,0,0,0,69.14-19.12c67.26-22.75,108.29-52.32,115.51-68.98,9.01-20.8,4.43-51.42-26.29-90.08-25.81-32.47-62.94-55.38-125.01-70.72-42.29-10.45-87.14-15.01-133.96-13.74l-313.49-88.96-166.01-34.51c-30.3,21.09-55.98,48.33-74.18,79.77-32.8,56.64-37.04,119.01-18.32,169.61"/>
    <path id="Mao_esq_copiar_2" data-name="Mao esq copiar 2" class="cls-13" d="M7664.36,3615.15c44.84-8.64,78.67-53.36,91.15-72.62,14.23-21.98,36.79-66.23,28.46-107.63-7.53-37.42-37.49-53.81-58.84-59.64-30.18-8.25-63.97.36-92.44,17.01-33.2,19.43-84.1,64.98-90.08,118.97-2.56,23.18,12.91,64.72,68.47,93.77C7631.99,3615.95,7649.69,3617.98,7664.36,3615.15Z"/>
    <path id="Bra_esq_copiar_2" data-name="Bra esq copiar 2" class="cls-13" d="M7682.28,3662.62L7303.5,3823.19l-237.31,89.28a634.182,634.182,0,0,1-71.74-4.48c-70.63-8.42-116.96-28.9-127.46-43.7-13.12-18.48-14.93-49.36,7.25-93.46,18.63-37.05,50.33-67.07,108.05-94.82,39.33-18.9,82.37-32.57,128.55-40.96l289.14-151.37,155.71-67.85c34.05,14.4,64.84,35.75,89.16,62.74,43.82,48.63,60.81,108.73,52.85,162.04"/>
    <path id="Pé_esq-2" data-name="Pé esq" class="cls-15" d="M6832.96,5092.14l5.46,132c-20.91,24.46-46.45,42.18-74.94,51.55-31.14,10.24-68.9,10.77-111.52-5.16a216.134,216.134,0,0,1-61.87-36.31l-16.86-107.77Z"/>
    <path id="Perna_esq-2" data-name="Perna esq" class="cls-17" d="M6403.44,4726.49q7.275,12.96,14.35,25.92c20.55,37.66,39.88,75.42,58.37,114.05,21,43.89,43.71,98.53,64.76,154.18,10.27,27.16,18.82,53.43,25.85,84.65q5.52,24.555,8.94,49.42l110.93,30.98,75.37-20.01,72.02-38.55-15.1-316.29Z"/>
    <path id="Pé_dir-2" data-name="Pé dir" class="cls-15" d="M7057.35,5051.65l41.33,126.51c28.17,15.74,58.32,23.49,88.29,22.31,32.77-1.28,68.31-14.05,102.62-44.08a216.508,216.508,0,0,0,45.16-56.02l-22.11-107.65Z"/>
    <path id="Perna_dir-2" data-name="Perna dir" class="cls-15" d="M7328.38,4559.09q-2.28,14.685-4.35,29.3c-6.05,42.47-10.91,84.61-14.69,127.27-4.29,48.47-6.41,107.6-6.62,167.09-0.1,29.05,1.09,56.64,5.44,88.34q3.42,24.93,8.93,49.43l-92.89,67.87-77.48,7.66-80.83-10.88-96.52-301.53Z"/>
    <path id="Quadril-2" data-name="Quadril" class="cls-13" d="M6343.83,4539.27c0.4,71.15,18.31,140.54,53.09,200.46,24.65,42.47,59.03,81,98.41,109.5,110.28,79.83,222.18,45.87,423.4,12.5,199.55-33.1,313.26-36.72,372.67-143.84,12.12-21.86,29.75-81.21,35.29-146.43,6.84-80.6-2.62-162.98-27.16-243.35L6437.24,4496.9Z"/>
    <path id="Torso-2" data-name="Torso" class="cls-13" d="M6399.06,4618.69c56.02,59.02,131.31,57.64,219.48,49.6,80.41-7.33,158.66-17.28,231.56-29.15,99.25-16.15,169.02-22.05,262.76-60.31,101.12-41.28,151.57-86.94,173.55-146.26,42.57-114.93-19.55-208.99-86.79-392.63-74.14-202.53-67.1-343.95-181.61-410.84-59.96-35.03-184.93-30.17-353.77,2.84-156.04,30.5-266.85,69.15-308.16,120.02-89.68,110.44-20.23,249.5-16.09,481.84C6343.37,4422.73,6320.07,4535.46,6399.06,4618.69Z"/>
    <path id="Cabeça" class="cls-13" d="M5645.94,3137.03a460.5,460.5,0,0,1-78.96,132.67l-23.22,26.93a78.531,78.531,0,0,0,14.32,98.8l19.68,34.53a65.575,65.575,0,0,1,14.03,30.9,66.543,66.543,0,0,1-9.4,45.75l-11.14,26.71a43.856,43.856,0,0,0,22.93,60.51q59.01,35.97,118.01,71.93c38.03,19.37,74.67,38.66,111.54,58.76,47.35,25.8,90.37,49.64,137.08,70.6,36.56,16.41,74.58,32.07,106.27,42.27,107.32,34.56,214.48,44.25,326.54,40.17,99.07-3.62,212.57-25.46,333.79-48.8,92.19-17.75,177.54-34.44,251.31-59.87,105.58-36.39,195.64-81.03,274.17-132.83a1152.884,1152.884,0,0,0,214.71-182.92q54.72-71.8,109.45-143.62c11.86-36.41,29.22-67.15,52.59-92.09,14.34-15.3,47.78-46.8,63.88-73.44,2.53-4.19,5.14-8.89,7.55-13.75a187.047,187.047,0,0,0,9.02-21.43c4.84-12.58,5.55-26.36,1.15-39.09-6.84-19.83-43.04-41.54-43.04-41.54a44.491,44.491,0,0,1-23.8-31.2,43.832,43.832,0,0,1,5.5-30.33l5.28-42.42a58.44,58.44,0,0,0-18.02-71.29l-125.44-74.48a350.221,350.221,0,0,1-63.97-72.24c-15.4-28.5-29.41-57.24-42.38-86.89a1171.493,1171.493,0,0,1-67.48-203.29q-38.775-205.1-77.56-410.2c-23.66-51.04-56.8-183.48-91.94-254.13-54.58-109.73-113.87-158.83-149.17-205.21-10.44-13.71-23.84-28.03-44.85-38.72-70.84-36.03-162.21,5.93-209.36,40.97-81.77,60.77-104.59,151.25-122.04,218.46-20.87,80.43-49.34,181.48-75.96,273.9l-73.28,8.76-126.52,20.42-96.22,25.91-99.32,33.88-160.24-200.35c-63.21-92.87-164.04-165.4-275.26-160.62-48.62,2.09-107.91,17.13-150.03,57.12a196.182,196.182,0,0,0-37.69,49.51s-36.32,122.52-37.69,282.51c-0.75,88.07,26.63,189.06,35.31,283.53,6.51,70.96,81.6,351.06,81.6,351.06,7.16,69.22,16.41,161.33,21.75,205.67a491.518,491.518,0,0,1,3.65,64.18A456.34,456.34,0,0,1,5645.94,3137.03Z"/>
    <g id="XIC">
      <path id="Xic1" class="cls-13" d="M5172.29,4024.76l419.7,10.24,1.2-49.68a179.975,179.975,0,0,0,49.97-23.64c33.91-23.09,52.08-52.87,76.65-105.84a766.484,766.484,0,0,0,44.14-123.2c6.7-25.15,14.53-59.85,2.38-99.37-8.11-26.39-21.52-42.48-31.72-50.48-14.8-11.62-35.12-19.86-57.21-17.97a80.131,80.131,0,0,0-49.97,23.64q-2.505-21.345-5.02-42.69-0.9-7.74-1.82-15.48-226.41-1.38-452.81-2.77s0.1,11.85.29,31.88C5169.06,3669.17,5172.29,4024.76,5172.29,4024.76Zm-4.51-497.24a31.729,31.729,0,0,1,17.06-16.15,32.071,32.071,0,0,1,24.99.61l391.59,9.56q8.22,4.335,16.46,8.69Z"/>
      <path id="Xic2" class="cls-7" d="M5609.14,3911.07l14.84-281.3,25.08-7.65c9.77-6.98,21.78-10.05,33.36-7.44,11.47,2.57,19.79,10.37,24.5,17.18,15.17,21.94,4.79,52.2-1.73,74.52-10.23,34.97-9.03,90.25-36.45,139.91a277.711,277.711,0,0,1-34.33,48.85Z"/>
      <path id="Xic_smoke" data-name="Xic smoke" class="cls-13" d="M5322.06,3446.89c-19.1-21.7-32.97-51.01-37.74-84.28-3.85-26.78-1.8-47.54,1.61-59.81,7.88-28.39,24.17-36.39,34.83-61.55,10.54-24.89,12.15-46.74,11.1-60.31a116.424,116.424,0,0,0-17.02-52.19l20.02,18.86a158.454,158.454,0,0,1,26.51,51.69c6.72,22.01,8.31,42.72,7.53,52.69-1.16,14.93-9.28,42.15-29.73,67.92-10.35,13.04-18.27,18.73-21.99,34.34-4.15,17.43-.78,37.68,7.88,59.3l11.93,45.82Z"/>
    </g>
    <g id="Magnifier">
      <path id="Retângulo_2856" data-name="Retângulo 2856" class="cls-13" d="M7650.68,3157.03l49.87-11.6h0l37.18,160.45h0l-49.86,11.6h0l-37.19-160.45h0Z"/>
      <path id="Retângulo_Arredondado_7" data-name="Retângulo Arredondado 7" class="cls-13" d="M7642.51,3221.88l97.9-30.8a9.484,9.484,0,0,1,11.89,6.22l153.26,489.05a9.508,9.508,0,0,1-6.21,11.91l-97.9,30.8a9.474,9.474,0,0,1-11.89-6.21L7636.3,3233.79A9.5,9.5,0,0,1,7642.51,3221.88Z"/>
      <path id="Elipse_4" data-name="Elipse 4" class="cls-13" d="M7637.13,2601.57c156.16,14.78,270.65,155,255.72,313.18s-153.61,274.43-309.76,259.65-270.64-155-255.72-313.18S7480.98,2586.79,7637.13,2601.57Z"/>
    </g>
  </g>
  <g id="ELE">
    <path id="Mao_esq-2" data-name="Mao esq" class="cls-13" d="M10260,4032.73c-28.7,33.61-27.4,87.87-25.2,109.97,2.4,25.22,12,72.31,43.2,98.58,28.3,23.75,60.8,18.04,80.5,9.56,27.8-12,48.2-38.92,59.7-68.71,13.4-34.74,24.5-99.94-3.5-144.37-12-19.08-48.7-41.15-108.3-29.55C10284,4012.57,10269.4,4021.73,10260,4032.73Z"/>
    <path id="Bra_esq-2" data-name="Bra esq" class="cls-13" d="M10217.6,4007.66l189.8-350.23,125.7-210.86a616.838,616.838,0,0,1,56.9-39.94c58.5-36.3,105.8-48.8,122.7-43.95,21,6.05,41,28.3,50.7,75.05,8.2,39.27,2.3,81.12-24.6,136.97-18.4,38.05-42.7,74.38-72.6,108.62l-127.5,289.13-76.9,145.36c-34.4,9.68-70.5,12.13-105.2,6.41-62.3-10.3-111.4-45.49-137.4-90.61"/>
    <path id="Mao_esq_copiar-3" data-name="Mao esq copiar" class="cls-13" d="M11669.1,3946.78c32.6,29.88,37.9,83.9,38.4,106.1,0.6,25.33-3.2,73.23-31,103.1-25.1,27-58.1,25.29-78.6,19.25-29.1-8.53-52.6-32.77-67.6-60.94-17.6-32.86-36.5-96.23-14.1-143.73,9.6-20.39,43.4-46.76,103.9-42.48C11642.8,3929.69,11658.5,3937,11669.1,3946.78Z"/>
    <path id="Bra_esq_copiar-3" data-name="Bra esq copiar" class="cls-13" d="M11706.4,3916.78l-230.9-324.57-150.3-194.03a610.58,610.58,0,0,0-61.3-32.73c-62.5-28.92-111-35.58-127.1-28.72-20.1,8.57-37.2,33.08-41.3,80.67-3.3,39.97,7.6,80.8,41.1,132.96,22.8,35.53,51.4,68.65,85.2,99l161.6,271.49,94,134.94c35.3,5.43,71.4,3.47,105.1-6.41,60.7-17.81,105.1-58.69,125.4-106.64"/>
    <path id="Pé_esq-3" data-name="Pé esq" class="cls-15" d="M10900.4,4755.58l-9.8,127.6c-22.9,21.15-49.5,35.28-77.9,41.04-31.1,6.29-67.4,2.5-106.6-17.7a210.139,210.139,0,0,1-55.3-41.99l-3.9-105.6Z"/>
    <path id="Perna_esq-3" data-name="Perna esq" class="cls-13" d="M10528.8,4354.78q5.55,13.3,10.8,26.57c15.5,38.58,29.7,77.12,43.1,116.39,15.2,44.62,30.7,99.77,44.6,155.71a588.456,588.456,0,0,1,15.2,84.38c1.7,16.17,2.6,32.37,2.9,48.57l103,42.47,74.6-10.65,73.6-28.85,21.5-305.99Z"/>
    <path id="Pé_dir-3" data-name="Pé dir" class="cls-15" d="M11120.6,4742.25l25.3,126.42c25.3,18.36,53.4,29.26,82.3,31.55,31.6,2.5,67.2-5.72,103.6-30.69a208.024,208.024,0,0,0,49.8-48.73l-9-106.09Z"/>
    <path id="Perna_dir-3" data-name="Perna dir" class="cls-13" d="M11436.5,4299.42c-2.6,9.25-5.1,18.48-7.6,27.7-10.6,40.16-20.1,80.15-28.6,120.75-9.6,46.13-18.4,102.78-25.4,159.98-3.4,27.93-5.4,54.62-4.8,85.61,0.3,16.25,1.3,32.44,2.9,48.56l-97,54.67-75.4-1.49-76.5-19.71-58.5-301.11Z"/>
    <path id="Quadril-3" data-name="Quadril" class="cls-13" d="M10493.5,4167.95c-7.7,68.49,1.6,137.29,28.2,198.91,18.8,43.67,47.5,84.66,82.1,116.58,96.8,89.39,208.2,69.51,405.3,60.39,195.5-9.04,305.1.47,374.4-95.79,14.1-19.64,37.8-74.72,50.6-136.83,15.7-76.76,16-157.08,1.6-237.2l-847.6,63.86Z"/>
    <path id="Torso-3" data-name="Torso" class="cls-13" d="M10537.5,4250.66c47.1,63.18,119.6,70.45,205.2,72.79,78.1,2.14,154.4,1.51,225.8-1.58,97.2-4.2,164.9-1.9,259.3-28,101.9-28.16,155.5-66.31,183.4-120.87,54-105.7,5-203.28-38.7-387.63-48.1-203.29-25.2-338.54-127.6-415.97-53.6-40.54-174.3-50.14-340.2-37.69-153.4,11.52-264.3,36.04-309.7,80.25-98.8,96-47.9,237.71-70.4,461.69C10506.4,4055.78,10471.1,4161.57,10537.5,4250.66Z"/>
    <g id="Agrupar_1" data-name="Agrupar 1">
      <path id="Orelha_esq" data-name="Orelha esq" class="cls-13" d="M10464.3,1667.74a381.618,381.618,0,0,0-57.7-91.04,301.675,301.675,0,0,0-55.8-61.3c-31.6-26.22-68.5-42.04-82.2-44.75-28.5-5.68-58.8-2.66-86.4,7.75-39.5,14.88-67.9,46.94-76,56.88-27.6,33.94-54.5,59.78-81.1,94.53-15.5,20.3-54.51,61.61-83.61,94.67-30.14,34.25-56.23,62.46-91.17,92.65a790.8,790.8,0,0,1-95,70.48c-44,27.76-91.49,52.41-120.34,62.08-25.31,8.48-59.57,22.47-68.05,24.05-8.98,1.68-28.37,4.65-43.46,20.07-13.73,14.03-18.62,33.55-19.39,48.46-0.72,14.08,2.23,25.85,7.36,39.36a315.038,315.038,0,0,0,28.21,55.51c10.63,9.25,21.01,18.46,31.49,27.95,12.62,11.41,22.74,21.08,31.79,32.89,18.72,24.42,28.46,50.48,33.91,67.61,7.1,22.32,16.1,51.27,18.77,63.55,2.45,11.31,5.87,64.97,20.88,98.26,10.31,22.88,27.12,47.04,53.99,71.36,17.17,15.54,32.63,23.8,51.88,36.65,21.52,14.37,35.88,29.26,57.28,43.79,39.41,26.76,85.29,46.44,125.12,57.07,152.44,40.67,342.14-26.23,442.14-158.82,24.7-32.72,65.5-153.65,82-283.69,14.5-114.14,4.6-237.21,7.7-321.46C10498.3,1826.44,10500.9,1749.13,10464.3,1667.74Z"/>
      <path id="Orelha_dir" data-name="Orelha dir" class="cls-13" d="M11165.8,1624.77a385.383,385.383,0,0,1,46.2-97.31,299.726,299.726,0,0,1,48.1-67.58c28.1-29.85,62.9-50.02,76.1-54.38,27.7-9.09,58.1-9.76,86.8-2.8,41,9.97,73.1,38.32,82.3,47.21,31.5,30.31,61.5,52.66,92.1,83.91,17.8,18.26,61.6,54.49,94.5,83.76,34.1,30.31,63.4,55.12,101.8,80.83a787.06,787.06,0,0,0,102.9,58.38c47,22.19,97.2,40.88,127,46.96,26.2,5.34,61.9,15.06,70.5,15.6,9.1,0.57,28.7,1.16,45.6,14.63,15.3,12.25,22.6,31.01,25.1,45.71,2.5,13.88.9,25.92-2.5,39.94a311.186,311.186,0,0,1-21.3,58.49c-9.4,10.47-18.6,20.87-27.9,31.54-11.1,12.85-20,23.68-27.5,36.5-15.7,26.49-22.2,53.53-25.5,71.18-4.4,22.99-9.8,52.8-10.9,65.31-1.1,11.52,2,65.16-8.8,100.01-7.5,23.94-21.3,49.95-45,77.34-15.2,17.5-29.5,27.56-47.1,42.65-19.6,16.86-32.1,33.38-51.6,50.39-35.8,31.33-79,56.43-117.3,71.8-146.4,58.84-343,15.52-458.3-103.86-28.5-29.46-83.7-144.45-115.9-271.44-28.2-111.46-33.4-234.75-46.7-317.94C11151.3,1786.33,11139.4,1709.95,11165.8,1624.77Z"/>
      <g id="boca_ele" data-name="boca ele">
        <path id="Cabeça-2" data-name="Cabeça" class="cls-13" d="M11352.8,1663.36c-50.1-21.79-304.1-122.34-547.4-101.01-179.9,15.77-383.4,79.24-543.1,212.25-67.6,56.3-112.4,110.47-144,163.05-53.2,88.64-82,189.08-86.3,293.91l-19.9,80.84a1628.4,1628.4,0,0,1-84.96,154.47c-25.64,41.15-52.87,80.78-82.1,119.47l-31,61.61A506.276,506.276,0,0,0,9870,3077.5c57.5,89.74,139.8,154.3,266.2,212.7,179.5,83.02,356.8,114.67,524.4,132.28,192.9,20.27,394.8,19.13,486.5.2,109.6-22.59,266.6-102.97,426.3-175.27,73.2-33.15,175.3-82.15,267-180.5,100-107.16,138.5-206.72,151.6-282.95,14.1-82.71,7-156.32-13.3-218.16-10.9-33.01-37.8-85.28-72.8-134.91a696.216,696.216,0,0,0-80.2-94.65l-58.9-71.05c-25.4-48.29-49.5-95.84-73.4-144.83-36.2-74.08-70-147.07-102.9-222.65l-48.8-66.7c-23.6-41.46-53.9-78.31-91-108.92C11422.1,1698.54,11390.9,1679.96,11352.8,1663.36Z"/>
      </g>
      <path id="Tromba" class="cls-13" d="M10452.6,3405.38c-11.5,3.02-22.9,9.45-31.1,19.32-4.3,5.25-9.9,16.47-13,30.65-3.1,14.34-.6,29.34-7.2,45.23-4.6,11.21-12.5,17.7-20.6,28.62-10.7,14.57-17.5,28.7-20,38.55-4.7,19.29-.9,34.1,2.5,39.66,6.9,11.5,20,17.79,33.5,20.35,14.2,2.71,27-2.17,46.7-7.82,16.2-4.67,27.8-7.18,41.2-14.96a121.179,121.179,0,0,0,19.1-13.6l48.2,16.97a405.412,405.412,0,0,0,70.6,18.09,430.275,430.275,0,0,0,79.7,5.1c25.5-.6,56.5-4.47,88.8-10.39,25.7-4.72,63.9-14.54,97.8-23.38,30.3-7.87,71.4-19.67,111.7-41.64,21.4-11.65,40.2-25.21,56.8-45.76,17.3-21.38,26-43.27,31.1-59.13,11.6-35.94,16.2-68.31,23.5-103.45,3.4-16.19,31.7-77.86,21.4-98.35-19.6-38.89-122.9-39.58-303.4-8.88-27.5,4.68-82.8,27.5-131.3,45.33-16.5,6.04-50.7,35.69-80.7,62.14-5.6,5.02-14.9,13.52-15.8,25.85-1.4,20.36,22,32.15,43.4,59.56a163.2,163.2,0,0,1,22.2,38.46,286.061,286.061,0,0,1-142-8.76l-11.3-21.71c-4.1-15.95-14.5-29.64-29.5-35.53C10478.1,3403.22,10467.2,3401.57,10452.6,3405.38Z"/>
    </g>
    <g id="PENCIL">
      <path id="Forma_29" data-name="Forma 29" class="cls-13" d="M10747.3,1760.18l191.3-65.08-71.3-217.4-209.5,67.05,81.4,225.54"/>
      <path id="Forma_29_copiar" data-name="Forma 29 copiar" class="cls-15" d="M10822.4,1740.95q58.05-22.92,116.2-45.85l-71.3-217.4q-60.45,19.47-120.7,38.95Z"/>
      <path id="Forma_25" data-name="Forma 25" class="cls-13" d="M9904.95,1801.87l74.57,229.97,773.38-270.43-75.8-224.3Z"/>
    </g>
  </g>
  <path id="Retângulo_2858" data-name="Retângulo 2858" class="cls-18" d="M-664-250H13164V6026H-664V-250h0Z"/>
</svg>
