<svg id="Agrupar_3" data-name="Agrupar 3" xmlns="http://www.w3.org/2000/svg" width="4167" height="4167" viewBox="0 0 4167 4167">
  <defs>
    <style>
      .cls-1 {
        fill: #fff;
        fill-rule: evenodd;
      }

      .cls-2 {
        fill: none;
        stroke: #fff;
        stroke-width: 108px;
      }
    </style>
  </defs>
  <path id="Retângulo_2" data-name="Retângulo 2" class="cls-1" d="M849,274.01H3319V639.865H849V274.01h0Z"/>
  <path id="Forma_5" data-name="Forma 5" class="cls-1" d="M1321.01,2695a1715.449,1715.449,0,0,1,21.25-252.32c12.32-77.46,32.28-161.3,59.21-250.53a2160.585,2160.585,0,0,1,87.86-238.99q-131.715-193.26-263.42-386.52c-13.38-31.64-30.55-50.75-51.46-56.9-60.08-17.66-144.97,73.3-171.01,161.22-29.7,100.23,13.06,208.58,88.12,288.78-37.38,32.71-64.03,75.42-70.29,123.72-11.45,88.34,46.64,186.65,155.97,234.43-30.04,35.29-48.76,75.48-52.3,118.11C1116.85,2533.39,1188.22,2641.23,1321.01,2695Z"/>
  <path id="Forma_4" data-name="Forma 4" class="cls-1" d="M1646.31,1636.52c11.06-194.91,188.16-315.55,326.93-283.29,123.53,28.73,224.18,180.43,186.99,347.52q-73.425,325.14-146.84,650.29c7.56,36.22,40.95,59.49,73.42,55.05,26.55-3.63,49.51-25.45,55.06-55.05q22.95-104.94,45.89-209.88c166.2,19.1,336.09-26.53,453.12-145.66,53.08-54.04,92.01-120.05,115.86-193.83a448.845,448.845,0,0,1,231.72,151.39c65.53,81.5,100.06,183.34,98.65,287.88a3879.458,3879.458,0,0,1-198.45,821.18,3874.677,3874.677,0,0,1-251.22,555.1q-2.22,151.4-4.44,302.78H1655.48l9.18-422.06c-111.44-129.61-193.16-275.45-238.6-435.82-82.52-291.21-19.04-528.4,49.32-779.9C1527.06,2092.09,1589.85,1853.4,1646.31,1636.52Z"/>
  <g id="Agrupar_2" data-name="Agrupar 2">
    <circle id="Elipse_1" data-name="Elipse 1" class="cls-2" cx="2084" cy="1266.656" r="873.62"/>
    <path id="Forma_1" data-name="Forma 1" class="cls-1" d="M2170.82,1257.67a50.611,50.611,0,0,0-7.85-19.49,52.339,52.339,0,0,0-16.02-15.08c-12.6-7.99-23.3-9.94-38.35-14.93-11.42-3.8-19.54-7.49-31.42-9.44-4.97-.81-14.78-0.93-23.89-0.32-4.82.33-9.68,1-14.93,4.09a29.783,29.783,0,0,0-9.59,9.11L1722.45,1364.6a338.878,338.878,0,0,0-67.12,46.65c-28.21,25.2-49.72,53.66-59.11,71.33-18.97,35.74-24.83,65.79-25.32,90.03-0.73,36.53,10.34,76.61,37.22,115.65,23.2,33.68,56.38,60.19,95.22,76.53,32.82,13.81,72.81,20.7,118.8,15.1,14.99-1.82,37.48-7.54,59.25-14.76a472.235,472.235,0,0,0,66.64-27.95l10.36,16.81a285.621,285.621,0,0,0,173.47,141.13q16.185,3.135,32.37,6.29a225.672,225.672,0,0,0,100.11-19.63c45.96-20.76,79.66-51.79,98.55-88.6,9.24-18.01,21.62-63.56,17.79-116.27-3.1-42.73-15.76-84.24-36.9-122.41l-168.56-288.66Z"/>
    <path id="_1" data-name="1" class="cls-1" d="M1671.13,852.343c-97.17,20.679-119.03,175.017-101.48,256.367s87.67,191.59,179.71,176.36,124.73-170.69,102.28-247.38C1841.23,938.372,1768.31,831.663,1671.13,852.343Z"/>
    <path id="_2" data-name="2" class="cls-1" d="M2032.1,640.625c-111.53-7.241-153.45,132.336-163.74,230.686-12.53,59.2,26.19,244.839,128.33,248.389s148.16-132.177,163.1-216.888S2143.64,647.865,2032.1,640.625Z"/>
    <path id="_3" data-name="3" class="cls-1" d="M2480.87,775.314c97.09,55.371,55.17,194.948,9.57,282.706-22.16,56.31-156.75,189.93-243.96,136.65s-50.83-191.9-16.63-270.832S2383.79,719.943,2480.87,775.314Z"/>
    <path id="_4" data-name="4" class="cls-1" d="M2666.21,1151c69.72,70.76,2.93,211.62-56.55,269.85s-178.72,111.63-247.15,48.25-10.06-211.15,50.93-262.8C2476.85,1129.14,2596.5,1080.23,2666.21,1151Zm-687.55,638.19"/>
  </g>
</svg>
