<svg id="Agrupar_2" data-name="Agrupar 2" xmlns="http://www.w3.org/2000/svg" width="1483" height="975" viewBox="0 0 1483 975">
  <defs>
    <style>
      .cls-1 {
        font-size: 82.51px;
        font-family: G8321;
        font-weight: 700;
      }

      .cls-1, .cls-4 {
        fill: #fff;
      }

      .cls-2, .cls-3 {
        fill: #06c2b5;
      }

      .cls-2, .cls-3, .cls-4 {
        fill-rule: evenodd;
      }

      .cls-3 {
        stroke: #b7ebde;
        stroke-width: 9px;
      }
    </style>
  </defs>
  <text id="Paw" class="cls-1" transform="translate(258.626 970.412) scale(4.961 4.952)">Paw</text>
  <g id="Agrupar_1" data-name="Agrupar 1">
    <path id="Elipse_1_copiar" data-name="Elipse 1 copiar" class="cls-2" d="M741.41,0c179.719,0,325.41,145.731,325.41,325.5S921.129,651,741.41,651,416,505.268,416,325.5,561.691,0,741.41,0Z"/>
    <path id="Elipse_1" data-name="Elipse 1" class="cls-3" d="M740.5,16.946c168.45,0,305.011,138.144,305.011,308.553S908.949,634.053,740.5,634.053,435.493,495.909,435.493,325.5,572.049,16.946,740.5,16.946Z"/>
    <path id="Forma_1" data-name="Forma 1" class="cls-4" d="M774.744,300.791a21.349,21.349,0,0,0-5.529-6.915,22.025,22.025,0,0,0-8.3-4.149c-6.052-1.7-10.6-1.188-17.281-1.383-5.07-.148-8.794-0.653-13.824,0a53.028,53.028,0,0,0-9.677,2.766,13.362,13.362,0,0,0-5.53,3.457,12.613,12.613,0,0,0-2.765,4.841l-105.066,98.88a142.819,142.819,0,0,0-21.428,26.968c-8.329,13.592-13.561,27.686-15.206,35.956-3.328,16.728-2.051,29.571.691,39.414,4.132,14.838,13.455,29.678,29.031,42.18a91.692,91.692,0,0,0,47.694,19.361c14.919,1.6,31.891-.468,49.768-8.3,5.828-2.552,14.21-7.589,22.12-13.138a198.747,198.747,0,0,0,23.5-19.362l6.221,5.532a120.319,120.319,0,0,0,87.094,35.957l13.825-1.383a95.04,95.04,0,0,0,38.017-20.053c16.028-13.952,25.869-30.561,29.031-47.711,1.547-8.389,1.019-28.279-6.912-49.095A125.06,125.06,0,0,0,880.5,399.671L777.509,303.556Z"/>
    <path id="_1" data-name="1" class="cls-4" d="M524,197.7c-36.706,20.123-26.823,85.082-9.882,115.8S572.705,380.22,608,362.921s29.647-84.022,11.294-112.265C603.058,211.822,560.705,177.577,524,197.7Z"/>
    <path id="_2" data-name="2" class="cls-4" d="M644,68.489c-45.882,10.591-45.882,72.019-38.118,112.972,2.118,25.418,40.235,95.672,81.882,84.728s43.765-71.313,39.53-107.323S689.881,57.9,644,68.489Z"/>
    <path id="_3" data-name="3" class="cls-4" d="M841.4,68.489c45.882,10.591,45.882,72.019,38.118,112.972-2.118,25.418-40.235,95.672-81.882,84.728s-43.765-71.313-39.53-107.323S795.52,57.9,841.4,68.489Z"/>
    <path id="_4" data-name="4" class="cls-4" d="M961.71,197.7c36.706,20.123,26.824,85.082,9.883,115.8s-58.588,66.724-93.882,49.425S848.064,278.9,866.417,250.656C882.652,211.822,925.005,177.577,961.71,197.7Zm-200.1,340.957"/>
  </g>
</svg>
