<svg id="Agrupar_1" data-name="Agrupar 1" xmlns="http://www.w3.org/2000/svg" width="4167" height="4167" viewBox="0 0 4167 4167">
  <defs>
    <style>
      .cls-1 {
        fill: #fff;
        fill-rule: evenodd;
      }

      .cls-2 {
        fill: none;
        stroke: #fff;
        stroke-width: 108px;
      }
    </style>
  </defs>
  <path id="Forma_3" data-name="Forma 3" class="cls-1" d="M1625.95,2445.76q-418.965-1.005-837.926-2c-31.544,6.6-59.5,26.36-72.993,55.99a96.606,96.606,0,0,0-7,55.99V3828.6c-1.289,21.1,4.316,42.05,17,59,19.065,25.48,50.936,37.88,82.992,34.99q1098.4-.99,2196.8-2a103.306,103.306,0,0,0,113.99-121.98q-0.99-632.94-2-1265.86c1.08-15.69-1.8-30.79-9-44-15.57-28.57-50.32-46.22-90.99-43.99H2182.9l-176.99,61.99q25.56,72.495,51.12,144.98,116.925,0.51,233.86,1c49.36,0.54,87.23,42.68,83.99,87.99-2.94,41.21-39.23,75.75-83.99,76H1535.96c-46.92-.77-83.56-40.03-82-83.99,1.22-34.31,38.84-70.1,78-78,2.11-.42,4.15-0.76,6.07-1,34.59-4.23,144.56-3.5,200-3,6.48-7.84,12.85-15.64,19.24-23.57,38.06-47.17,73.83-94.71,108.66-144.41Q1745.93,2464.255,1625.95,2445.76Z"/>
  <path id="Retângulo_2" data-name="Retângulo 2" class="cls-1" d="M1676.03,2462.75h471v188.98h-471V2462.75h0Z"/>
  <circle id="Elipse_1" data-name="Elipse 1" class="cls-2" cx="1911.53" cy="2047.295" r="440.5"/>
  <path id="Forma_1" data-name="Forma 1" class="cls-1" d="M3682.72,244c-153.55,81.271-316.28,139.18-486.95,170.981-121.31,22.6-372.95,27.872-612.94,4-157.71-15.688-289.48-36.623-447.96-38-70.01-.607-138.62,1.37-207.98,6Q1315.955,805.939,705.006,1224.89c-52.361,34.6-120.841,80.55-154.986,101.99-26.944,16.92-68.518,41.99-93.991,93.99-14.326,29.24-20.664,61.37-20,94.99a198.343,198.343,0,0,0,42,36c142.219,90.49,364.991-31.72,547.953-130.99,149.11-80.91,305.71-161.61,465.95-240.97a644.552,644.552,0,0,0,78.99,240.97c61.67,108.71,153.79,196.34,264.98,254.97,54.25-19.25,91.21-47.31,109.99-84.99,66.61-133.65-137.15-305.1-81.99-451.95,32.54-86.64,139.76-138.86,290.97-166.98,138.02-15.551,240.34,27.448,269.97,94.99,28.38,64.67-9.99,152.74-106.99,259.97-74,81.81-175.09,118.41-246.97,225.98-27,40.39-46.37,84.35-59,130.98,3.02,31.07,13.93,57.95,34,75.99,44.59,40.09,134.32,36.87,212.98-27.99a6205.657,6205.657,0,0,0,828.92-429.96,6201.389,6201.389,0,0,0,594.94-417.951A1084.7,1084.7,0,0,0,3682.72,244Z"/>
  <path id="Forma_1-2" data-name="Forma 1" class="cls-1" d="M1952.17,2030.37a25.659,25.659,0,0,0-6.62-8.28,26.311,26.311,0,0,0-9.93-4.96c-7.25-2.04-12.7-1.43-20.69-1.66-6.07-.17-10.53-0.78-16.55,0a63.673,63.673,0,0,0-11.58,3.31,16.015,16.015,0,0,0-6.62,4.14,15,15,0,0,0-3.31,5.79l-125.78,118.34a170.627,170.627,0,0,0-25.65,32.27c-9.98,16.27-16.24,33.14-18.21,43.03-3.98,20.02-2.45,35.39.83,47.17,4.95,17.76,16.11,35.52,34.75,50.48a109.8,109.8,0,0,0,57.1,23.17c17.86,1.91,38.18-.56,59.58-9.93,6.98-3.05,17.01-9.08,26.48-15.72a236.88,236.88,0,0,0,28.13-23.17l7.45,6.62A144.1,144.1,0,0,0,2025.81,2344q8.28-.825,16.55-1.66a113.746,113.746,0,0,0,45.52-23.99c19.18-16.7,30.96-36.58,34.75-57.1,1.85-10.04,1.22-33.85-8.27-58.76a149.78,149.78,0,0,0-35.59-53.79l-123.29-115.02Z"/>
  <path id="_1" data-name="1" class="cls-1" d="M1651.99,1906.99c-43.94,24.09-32.11,101.83-11.83,138.58s70.14,79.86,112.39,59.15,35.49-100.55,13.52-134.35C1746.64,1923.89,1695.93,1882.91,1651.99,1906.99Z"/>
  <path id="_2" data-name="2" class="cls-1" d="M1795.65,1752.36c-54.93,12.67-54.93,86.19-45.63,135.2,2.53,30.42,48.16,114.5,98.02,101.4s52.39-85.35,47.32-128.44S1850.57,1739.68,1795.65,1752.36Z"/>
  <path id="_3" data-name="3" class="cls-1" d="M2031.97,1752.36c54.92,12.67,54.92,86.19,45.63,135.2-2.54,30.42-48.17,114.5-98.03,101.4s-52.39-85.35-47.32-128.44S1977.04,1739.68,2031.97,1752.36Z"/>
  <path id="_4" data-name="4" class="cls-1" d="M2175.99,1906.99c43.94,24.09,32.11,101.83,11.83,138.58s-70.14,79.86-112.39,59.15-35.49-100.55-13.52-134.35C2081.35,1923.89,2132.05,1882.91,2175.99,1906.99Zm-239.54,408.05"/>
</svg>
