<svg id="Agrupar_2" data-name="Agrupar 2" xmlns="http://www.w3.org/2000/svg" width="4167" height="4167" viewBox="0 0 4167 4167">
  <defs>
    <style>
      .cls-1 {
        fill: #fff;
        fill-rule: evenodd;
      }
    </style>
  </defs>
  <path id="Forma_1" data-name="Forma 1" class="cls-1" d="M3332.03,1996.31a80.852,80.852,0,0,0,31.82,10.44c12.12,1.29,23.18-.36,34.84-4.03,22.68-7.14,36.04-18.18,57.57-31.37,16.36-10.02,29.19-16.13,43.77-28.6,6.09-5.22,16.31-17.04,24.91-28.77,4.55-6.2,8.73-12.81,10.35-22.37a47.65,47.65,0,0,0-1.26-21.04l128.01-530.15a539.686,539.686,0,0,0,12.04-129.64c-1.76-60.23-14.36-115.64-26.26-145.21-24.08-59.81-54.7-97.794-83.75-123.265-43.79-38.394-104.01-66.058-179.19-73.391-64.88-6.328-131.27,6.87-191.06,37.4-50.54,25.807-99.99,67.45-140.39,129.2-13.17,20.12-29.28,53.4-42.84,87.31a750.867,750.867,0,0,0-34.34,109.87l-31.14-4.63a455.284,455.284,0,0,0-350.13,66.4q-20.46,16.485-40.91,32.97c-36.99,41.25-63.99,89.53-78.86,142.08-21.88,77.3-18.66,150.2,6.82,211,12.46,29.73,55.29,91.57,123.47,141.02,55.27,40.08,118.88,67.28,187.11,80.71l524.94,91.03Z"/>
  <path id="Forma_1-2" data-name="Forma 1" class="cls-1" d="M2861.85,1321a975.653,975.653,0,0,0-140.99-119c-245.08-169.78-694.63-308.879-1137.92-68-363.27,197.4-570.68,580.54-561.96,970,10.44,466.64,320.49,848.19,708.95,994,271.55,101.93,617.86,103.03,920.94-77,222.06-131.91,385.81-340.94,467.96-586,15.19-107.73,118.43-173.52,206.99-151,74.12,18.85,130.08,97.66,120.99,187-75.77,260.52-212.47,487.95-407.97,659-470.72,411.85-1268.47,486.18-1813.88,60C866.947,2910.25,690.668,2474.87,698,2064c5.452-305.52,111.363-604.21,301.979-845C1257.7,893.447,1681.84,662.122,2161.9,683c352.29,15.321,682.46,165.944,932.94,413Q2978.35,1208.5,2861.85,1321Z"/>
</svg>
