<svg id="Agrupar_1" data-name="Agrupar 1" xmlns="http://www.w3.org/2000/svg" width="255.96" height="255.96" viewBox="0 0 1080 1080">
  <defs>
    <style>
      .cls-1, .cls-2 {
        fill: #1969ff;
      }

      .cls-2 {
        stroke: #fff;
        stroke-width: 14px;
      }

      .cls-3 {
        fill: #fff;
        fill-rule: evenodd;
      }
    </style>
  </defs>
  <circle id="Elipse_1_copiar" data-name="Elipse 1 copiar" class="cls-1" cx="539.5" cy="539.5" r="526.5"/>
  <circle id="Elipse_1" data-name="Elipse 1" class="cls-2" cx="539.439" cy="539.498" r="499.001"/>
  <path id="Forma_1" data-name="Forma 1" class="cls-3" d="M593.977,499.532a34.554,34.554,0,0,0-8.956-11.184,35.641,35.641,0,0,0-13.433-6.711c-9.8-2.749-17.174-1.922-27.985-2.237-8.211-.239-14.242-1.057-22.388,0a85.994,85.994,0,0,0-15.672,4.474,21.63,21.63,0,0,0-8.955,5.592,20.367,20.367,0,0,0-4.478,7.829L321.959,657.236a231,231,0,0,0-34.7,43.62c-13.49,21.986-21.963,44.782-24.627,58.16-5.389,27.058-3.321,47.831,1.119,63.753,6.692,24,21.791,48,47.016,68.226,21.768,17.451,48.652,28.26,77.239,31.317,24.161,2.584,51.647-.758,80.6-13.421,9.438-4.128,23.012-12.275,35.821-21.251a321.741,321.741,0,0,0,38.061-31.317l10.074,8.947a194.965,194.965,0,0,0,141.047,58.161l22.388-2.237a153.969,153.969,0,0,0,61.568-32.436c25.958-22.568,41.894-49.433,47.015-77.174,2.5-13.569,1.651-45.741-11.194-79.411a202.25,202.25,0,0,0-48.135-72.7L598.454,504.006Z"/>
  <path id="_1" data-name="1" class="cls-3" d="M187.9,332.782c-59.444,32.55-43.44,137.621-16,187.3S266.78,628.01,323.937,600.029s48.012-135.907,18.29-181.59C315.935,355.624,247.346,300.233,187.9,332.782Z"/>
  <path id="_2" data-name="2" class="cls-3" d="M382.238,123.782c-74.305,17.131-74.305,116.492-61.73,182.733,3.429,41.114,65.159,154.751,132.605,137.049s70.876-115.35,64.017-173.6S456.543,106.65,382.238,123.782Z"/>
  <path id="_3" data-name="3" class="cls-3" d="M701.927,123.782c74.3,17.131,74.3,116.492,61.731,182.733-3.43,41.114-65.16,154.751-132.606,137.049s-70.876-115.35-64.017-173.6S627.623,106.65,701.927,123.782Z"/>
  <path id="_4" data-name="4" class="cls-3" d="M896.763,332.782c59.444,32.55,43.44,137.621,16,187.3S817.886,628.01,760.728,600.029s-48.012-135.907-18.29-181.59C768.73,355.624,837.319,300.233,896.763,332.782Zm-324.055,551.5"/>
</svg>
