<svg id="Agrupar_3" data-name="Agrupar 3" xmlns="http://www.w3.org/2000/svg" width="3963" height="1271" viewBox="0 0 3963 1271">
  <defs>
    <style>
      .cls-1 {
        fill: #fff;
        fill-rule: evenodd;
      }

      .cls-2 {
        fill: none;
        stroke: #fff;
        stroke-width: 108px;
      }
    </style>
  </defs>
  <g id="Arrow_up" data-name="Arrow up">
    <path id="Retângulo_Arredondado_1" data-name="Retângulo Arredondado 1" class="cls-1" d="M1517.99,395.993H2657.97c38.93-4.622,69.22,26.168,68,55-1.16,27.508-31.08,54.754-68,50H1517.99v-105Z"/>
    <path id="Forma_1" data-name="Forma 1" class="cls-1" d="M1258.16,402.09a36.809,36.809,0,0,0-12,8.081,30.571,30.571,0,0,0-7.2,12.121c-2.95,8.843-2.06,15.5-2.4,25.252-0.25,7.409-1.13,12.851,0,20.2,0.48,3.075,2.45,8.879,4.8,14.141a19.383,19.383,0,0,0,6,8.081,23.193,23.193,0,0,0,8.4,4.04l171.61,153.535a246.037,246.037,0,0,0,46.81,31.313c23.59,12.172,48.05,19.818,62.4,22.222,29.03,4.863,51.32,3,68.4-1.01,25.76-6.039,51.51-19.663,73.21-42.424a123.452,123.452,0,0,0,33.6-69.7c2.77-21.8-.81-46.6-14.4-72.727-4.43-8.515-13.17-20.764-22.8-32.323a308.488,308.488,0,0,0-33.6-34.343l9.6-9.091a180.8,180.8,0,0,0,40.8-47.474,154.609,154.609,0,0,0,21.6-79.8l-2.4-20.2a133.309,133.309,0,0,0-34.8-55.555c-24.22-23.423-53.04-37.8-82.81-42.424-14.56-2.26-49.08-1.489-85.2,10.1a223.905,223.905,0,0,0-78.01,43.434l-166.81,150.5Z"/>
  </g>
  <g id="Arrow_up_copiar" data-name="Arrow up copiar">
    <path id="Retângulo_Arredondado_1-2" data-name="Retângulo Arredondado 1" class="cls-1" d="M2443.98,877.007H1304.03c-38.93,4.622-69.22-26.168-68-55,1.16-27.508,31.07-54.754,68-50H2443.98v105Z"/>
    <path id="Forma_1-2" data-name="Forma 1" class="cls-1" d="M2703.81,870.91a36.809,36.809,0,0,0,12-8.081,30.689,30.689,0,0,0,7.2-12.121c2.95-8.843,2.06-15.5,2.4-25.252,0.25-7.409,1.13-12.851,0-20.2-0.48-3.075-2.46-8.879-4.8-14.141a19.47,19.47,0,0,0-6-8.081,23.193,23.193,0,0,0-8.4-4.04L2534.6,625.457a245.962,245.962,0,0,0-46.8-31.313c-23.59-12.172-48.05-19.818-62.4-22.222-29.04-4.863-51.32-3-68.41,1.01-25.75,6.039-51.5,19.663-73.2,42.424a123.452,123.452,0,0,0-33.6,69.7c-2.77,21.8.81,46.6,14.4,72.727,4.43,8.515,13.17,20.764,22.8,32.323a308.488,308.488,0,0,0,33.6,34.343l-9.6,9.091a180.8,180.8,0,0,0-40.8,47.474,154.513,154.513,0,0,0-21.6,79.8l2.4,20.2a133.259,133.259,0,0,0,34.8,55.559c24.21,23.42,53.04,37.8,82.8,42.42,14.56,2.26,49.08,1.49,85.21-10.1a223.931,223.931,0,0,0,78-43.44l166.81-150.5Z"/>
  </g>
  <path id="Forma_2" data-name="Forma 2" class="cls-1" d="M3372.99,353.472q86.445,86.931,172.88,173.862-31.6,32.106-63.22,64.211-54.825-55.32-109.66-110.64l-110.64,110.64q-31.11-32.6-62.23-65.2Q3286.55,439.91,3372.99,353.472Z"/>
  <path id="Forma_2_copiar" data-name="Forma 2 copiar" class="cls-1" d="M3372.99,918.523q86.445-86.931,172.88-173.862-31.6-32.1-63.22-64.21-54.825,55.32-109.66,110.639L3262.35,680.451q-31.11,32.6-62.23,65.2Q3286.55,832.087,3372.99,918.523Z"/>
  <path id="Retângulo_1" data-name="Retângulo 1" class="cls-1" d="M3372.9,571.784l63.52,63.552h0l-65.31,65.4h0l-63.52-63.552h0l65.31-65.4h0Z"/>
  <path id="Retângulo_1_copiar" data-name="Retângulo 1 copiar" class="cls-1" d="M3588.05,571.784l63.52,63.552h0l-65.3,65.4h0l-63.52-63.552h0l65.3-65.4h0Z"/>
  <path id="Retângulo_1_copiar_2" data-name="Retângulo 1 copiar 2" class="cls-1" d="M3155.77,571.784l63.52,63.552h0l-65.31,65.4h0l-63.52-63.552h0l65.31-65.4h0Z"/>
  <circle id="Elipse_1" data-name="Elipse 1" class="cls-2" cx="3366" cy="636" r="405"/>
  <g id="Agrupar_2" data-name="Agrupar 2">
    <path id="Forma_1-3" data-name="Forma 1" class="cls-1" d="M645.028,620.448a22.483,22.483,0,0,0-5.815-7.271,23.159,23.159,0,0,0-8.723-4.362c-6.364-1.787-11.152-1.25-18.172-1.454-5.332-.156-9.248-0.687-14.538,0a55.747,55.747,0,0,0-10.176,2.908,14.04,14.04,0,0,0-5.815,3.635,13.245,13.245,0,0,0-2.908,5.09L468.394,722.962a150.124,150.124,0,0,0-22.533,28.355c-8.76,14.291-14.262,29.11-15.992,37.807-3.5,17.588-2.156,31.091.727,41.441,4.346,15.6,14.15,31.2,30.529,44.351a96.434,96.434,0,0,0,50.156,20.357c15.688,1.679,33.536-.493,52.335-8.725,6.129-2.683,14.943-7.979,23.261-13.814a208.8,208.8,0,0,0,24.714-20.357l6.542,5.816A126.529,126.529,0,0,0,709.72,896l14.538-1.454a99.938,99.938,0,0,0,39.979-21.085c16.856-14.67,27.2-32.133,30.529-50.166,1.627-8.82,1.072-29.734-7.269-51.621a131.479,131.479,0,0,0-31.256-47.258L647.935,623.356Z"/>
    <path id="_1" data-name="1" class="cls-1" d="M381.345,512.053c-38.6,21.159-28.207,89.46-10.392,121.754s61.611,70.157,98.726,51.968,31.176-88.346,11.877-118.042C464.483,526.9,419.945,490.9,381.345,512.053Z"/>
    <path id="_2" data-name="2" class="cls-1" d="M507.536,376.194c-48.249,11.136-48.249,75.725-40.084,118.784,2.227,26.726,42.311,100.595,86.107,89.088s46.022-74.982,41.568-112.845S555.786,365.058,507.536,376.194Z"/>
    <path id="_3" data-name="3" class="cls-1" d="M715.125,376.194c48.249,11.136,48.249,75.725,40.084,118.784C752.982,521.7,712.9,595.573,669.1,584.066s-46.022-74.982-41.569-112.845S666.875,365.058,715.125,376.194Z"/>
    <path id="_4" data-name="4" class="cls-1" d="M841.64,512.053c38.6,21.159,28.208,89.46,10.392,121.754s-61.61,70.157-98.725,51.968S722.13,597.429,741.43,567.733C758.5,526.9,803.041,490.9,841.64,512.053Zm-210.423,358.5"/>
  </g>
  <circle id="Elipse_1-2" data-name="Elipse 1" class="cls-2" cx="604" cy="636" r="405"/>
</svg>
