<svg xmlns="http://www.w3.org/2000/svg" width="2342" height="2450" viewBox="0 0 2342 2450">
  <defs>
    <style>
      .cls-1, .cls-4 {
        fill: #fff;
      }

      .cls-1, .cls-3 {
        fill-rule: evenodd;
      }

      .cls-2, .cls-3 {
        fill: none;
        stroke: #fff;
      }

      .cls-2 {
        stroke-width: 57px;
      }

      .cls-3 {
        stroke-width: 132px;
      }
    </style>
  </defs>
  <path id="Retângulo_Arredondado_2" data-name="Retângulo Arredondado 2" class="cls-1" d="M314.042,2096.22H547.675c6.247,2.73,12.388,5.28,18.734,7.76,52.307,20.48,107.295,32.19,164.319,35.6q-78.279,77.07-156.558,154.15a29.751,29.751,0,0,1-7.761,11.51,30.315,30.315,0,0,1-18.734,7.76H314.042a26.5,26.5,0,0,1-26.495-26.5V2122.72A26.5,26.5,0,0,1,314.042,2096.22Z"/>
  <path id="Retângulo_Arredondado_2_copiar" data-name="Retângulo Arredondado 2 copiar" class="cls-1" d="M2033.78,2096.22H1800.14c-6.24,2.73-12.39,5.28-18.73,7.76-52.31,20.48-107.3,32.19-164.32,35.6q78.285,77.07,156.56,154.15a29.65,29.65,0,0,0,7.76,11.51,30.309,30.309,0,0,0,18.73,7.76h233.64a26.492,26.492,0,0,0,26.49-26.5V2122.72A26.492,26.492,0,0,0,2033.78,2096.22Z"/>
  <circle id="Elipse_1" data-name="Elipse 1" class="cls-2" cx="1171.5" cy="1225.5" r="374.5"/>
  <path id="Forma_1" data-name="Forma 1" class="cls-1" d="M1212.43,1195.51a25.866,25.866,0,0,0-6.72-8.39,26.67,26.67,0,0,0-10.08-5.04c-7.36-2.06-12.89-1.44-21-1.68-6.17-.18-10.69-0.79-16.81,0a65.749,65.749,0,0,0-11.76,3.36,16.238,16.238,0,0,0-6.72,4.2,15.219,15.219,0,0,0-3.36,5.87l-127.7,120.01a173.336,173.336,0,0,0-26.042,32.74c-10.124,16.49-16.483,33.6-18.483,43.64-4.044,20.3-2.491,35.89.841,47.83,5.022,18.01,16.354,36.02,35.285,51.2a111.611,111.611,0,0,0,57.969,23.5c18.13,1.94,38.76-.57,60.49-10.07,7.08-3.1,17.27-9.21,26.88-15.95a241.249,241.249,0,0,0,28.57-23.5l7.56,6.72a146.343,146.343,0,0,0,105.85,43.64l16.81-1.68a115.567,115.567,0,0,0,46.2-24.34c19.48-16.93,31.44-37.09,35.29-57.91,1.88-10.18,1.24-34.32-8.4-59.59a151.9,151.9,0,0,0-36.13-54.55l-125.18-116.65Z"/>
  <path id="_1" data-name="1" class="cls-1" d="M907.672,1070.39c-44.612,24.42-32.6,103.26-12.011,140.54s71.209,80.98,114.109,59.99,36.03-101.98,13.72-136.26C1003.76,1087.53,952.285,1045.96,907.672,1070.39Z"/>
  <path id="_2" data-name="2" class="cls-1" d="M1053.52,913.562c-55.764,12.854-55.764,87.408-46.33,137.118,2.58,30.85,48.91,116.12,99.52,102.83s53.2-86.55,48.05-130.26S1109.29,900.707,1053.52,913.562Z"/>
  <path id="_3" data-name="3" class="cls-1" d="M1293.45,913.562c55.76,12.854,55.76,87.408,46.33,137.118-2.58,30.85-48.91,116.12-99.52,102.83s-53.2-86.55-48.05-130.26S1237.68,900.707,1293.45,913.562Z"/>
  <path id="_4" data-name="4" class="cls-1" d="M1439.67,1070.39c44.62,24.42,32.6,103.26,12.01,140.54s-71.2,80.98-114.1,59.99-36.03-101.98-13.73-136.26C1343.58,1087.53,1395.06,1045.96,1439.67,1070.39Zm-243.2,413.82"/>
  <path id="Retângulo_Arredondado_1" data-name="Retângulo Arredondado 1" class="cls-3" d="M272,323.32H2070.75a66,66,0,0,1,66,66v1671.2a66,66,0,0,1-66,66H272a65.994,65.994,0,0,1-66-66V389.32A66,66,0,0,1,272,323.32Z"/>
  <path id="Forma_11" data-name="Forma 11" class="cls-1" d="M699.416,1597.63l171.01,173.43a19.716,19.716,0,0,0,9.635,7.22c24.133,7.59,66.782-41.83,57.806-60.21-1.609-3.3-4.91-5.66-9.635-7.23q-86.709-81.9-173.418-163.79Z"/>
  <path id="Forma_10" data-name="Forma 10" class="cls-1" d="M670.513,1561.5l28.9,38.54a151.52,151.52,0,0,0,55.4-55.4q-20.473-15.645-40.946-31.31Z"/>
  <circle id="Elipse_1-2" data-name="Elipse 1" class="cls-4" cx="627.156" cy="1472.39" r="101.156"/>
</svg>
